<svg width="50" height="50" viewBox="0 0 50 50" fill="none" xmlns="http://www.w3.org/2000/svg">
<path d="M25 50C38.8071 50 50 38.8071 50 25C50 11.1929 38.8071 0 25 0C11.1929 0 0 11.1929 0 25C0 38.8071 11.1929 50 25 50Z" fill="#3C2B64"/>
<path d="M36.1958 19.1708C34.1551 19.1708 32.4676 19.894 31.133 21.3397C30.7428 21.7624 30.4113 22.234 30.1351 22.7514L21.042 13.6582H16.5014L8.21802 34.9252L23.2289 49.9361C23.8139 49.977 24.4042 49.9994 24.9996 49.9994C37.3018 49.9994 47.5283 41.1134 49.6113 29.4097L41.2046 21.003L41.2017 21.006C39.9231 19.7839 38.2555 19.1708 36.1958 19.1708Z" fill="#221838"/>
<path d="M29.5575 34.9252H24.8863L23.0294 30.0944H14.5284L12.773 34.9252H8.21802L16.5014 13.6582H21.042L29.5575 34.9252ZM21.6514 26.5113L18.721 18.6195L15.8486 26.5113H21.6514Z" fill="#A87EB7"/>
<path d="M39.2424 30.022L43.3043 30.7039C42.782 32.1933 41.9574 33.3273 40.8309 34.1057C39.704 34.8844 38.2944 35.2735 36.6021 35.2735C33.9231 35.2735 31.9404 34.3984 30.6543 32.6478C29.6388 31.2457 29.1311 29.4758 29.1311 27.3383C29.1311 24.7851 29.7985 22.7857 31.133 21.3397C32.4677 19.894 34.1553 19.1709 36.1959 19.1709C38.488 19.1709 40.2963 19.9277 41.6214 21.4412C42.9463 22.9548 43.5799 25.2735 43.5218 28.3973H33.3091C33.3381 29.6063 33.6668 30.5468 34.2955 31.2188C34.9241 31.8911 35.7074 32.227 36.6456 32.227C37.2838 32.227 37.8207 32.053 38.2558 31.7047C38.6911 31.3564 39.0198 30.7958 39.2424 30.022ZM39.4745 25.9021C39.4455 24.7223 39.1409 23.8253 38.5606 23.2111C37.9803 22.597 37.2743 22.2899 36.4426 22.2899C35.5527 22.2899 34.8179 22.614 34.2376 23.2618C33.6573 23.9098 33.3719 24.79 33.3817 25.902H39.4745V25.9021Z" fill="#A87EB7"/>
</svg>
