<svg width="50" height="50" viewBox="0 0 50 50" fill="none" xmlns="http://www.w3.org/2000/svg">
<path d="M25 50C38.8071 50 50 38.8071 50 25C50 11.1929 38.8071 0 25 0C11.1929 0 0 11.1929 0 25C0 38.8071 11.1929 50 25 50Z" fill="#5E3C16"/>
<path d="M49.9241 23.042L39.8078 12.9257H35.1964V17.1926L37.5596 19.5557H35.1964V23.4221L24.6998 12.9257H19.5631L10.1924 36.9844L23.1393 49.9313C23.7537 49.9763 24.3741 50.0001 25.0001 50.0001C38.8072 50.0001 50.0001 38.8072 50.0001 25.0001C50.0001 24.341 49.9742 23.6882 49.9241 23.042Z" fill="#472E11"/>
<path d="M34.3331 36.9844H29.0487L26.9481 31.5194H17.3313L15.3455 36.9844H10.1924L19.5631 12.9257H24.6997L34.3331 36.9844ZM25.3891 27.4658L22.074 18.5382L18.8246 27.4658H25.3891Z" fill="#DF871E"/>
<path d="M35.1963 17.1926V12.9257H39.8077V17.1926H35.1963ZM35.1963 36.9844V19.5557H39.8077V36.9843H35.1963V36.9844Z" fill="#DF871E"/>
</svg>
