<svg width="36" height="50" viewBox="0 0 36 50" fill="none" xmlns="http://www.w3.org/2000/svg">
<path d="M35.1505 10.7583C34.9532 10.5409 34.6732 10.4168 34.3797 10.4166H1.04631C0.471013 10.4141 0.00255535 10.8784 1.62887e-05 11.4536C-0.000179024 11.4879 0.00138393 11.5221 0.00460659 11.5562L3.12961 44.8895C3.16994 45.3171 3.46857 45.6761 3.88166 45.7937L18.4649 49.9604C18.5591 49.9871 18.6566 50.0004 18.7545 49.9999C18.8662 49.9998 18.9774 49.9822 19.0837 49.9479L31.5837 45.7812C31.9758 45.6507 32.2536 45.3009 32.292 44.8895L35.417 11.5562C35.4444 11.2647 35.3476 10.975 35.1505 10.7583Z" fill="#2196F3"/>
<path d="M18.7547 41.6668C18.6581 41.6662 18.5621 41.6522 18.4693 41.6251L11.1776 39.5418C10.8197 39.44 10.5433 39.1548 10.4526 38.7939L9.41089 34.6272C9.25874 34.0724 9.5852 33.4992 10.14 33.3471C10.6948 33.1949 11.2679 33.5214 11.4201 34.0762C11.4244 34.0917 11.4282 34.1072 11.4317 34.123L12.3275 37.7063L18.7545 39.5438L25.0878 37.7333L26.9628 20.8354H8.33784C7.76255 20.8354 7.29614 20.369 7.29614 19.7937C7.29614 19.2184 7.76255 18.752 8.33784 18.752H28.1295C28.7048 18.7485 29.174 19.212 29.1775 19.7873C29.1777 19.8278 29.1756 19.8681 29.1711 19.9082L27.0878 38.6582C27.0406 39.0781 26.7443 39.4279 26.3378 39.5437L19.0461 41.627C18.9515 41.6541 18.8533 41.6675 18.7547 41.6668Z" fill="#FAFAFA"/>
<path d="M27.0881 29.1668H9.37983C8.80454 29.1668 8.33813 28.7004 8.33813 28.1251C8.33813 27.5498 8.80454 27.0834 9.37983 27.0834H27.0881C27.6634 27.0834 28.1298 27.5498 28.1298 28.1251C28.1298 28.7004 27.6634 29.1668 27.0881 29.1668Z" fill="#FAFAFA"/>
<path d="M11.463 6.25097H7.29634C6.72104 6.25097 6.25464 5.78457 6.25464 5.20928V1.04268C6.25474 0.467383 6.72104 0.000976562 7.29634 0.000976562H11.463C12.0383 0.000976562 12.5047 0.467383 12.5047 1.04268C12.5047 1.61797 12.0383 2.08437 11.463 2.08437H8.33804V4.16767H11.463C12.0383 4.16767 12.5047 4.63408 12.5047 5.20937C12.5047 5.78467 12.0383 6.25097 11.463 6.25097Z" fill="#37474F"/>
<path d="M19.7964 6.2501H15.6297C15.0544 6.2501 14.588 5.78369 14.588 5.2084C14.588 4.63311 15.0544 4.1667 15.6297 4.1667H17.2817L14.8922 1.7792C14.4849 1.37295 14.4841 0.71338 14.8903 0.306056C15.0862 0.10967 15.3524 -0.000486665 15.6297 1.61637e-06H19.7964C20.3717 1.61637e-06 20.8381 0.466408 20.8381 1.0417C20.8381 1.61699 20.3717 2.0834 19.7964 2.0834H18.1443L20.5318 4.4709C20.9392 4.87715 20.94 5.53672 20.5337 5.94404C20.3383 6.13994 20.0731 6.25 19.7964 6.2501Z" fill="#37474F"/>
<path d="M28.1296 6.25012H23.963C23.3877 6.25012 22.9213 5.78371 22.9213 5.20842C22.9213 4.63313 23.3877 4.16672 23.963 4.16672H25.615L23.2255 1.77932C22.8181 1.37307 22.8173 0.713502 23.2236 0.306178C23.4195 0.109792 23.6856 -0.000364594 23.963 0.000123687H28.1296C28.7049 0.000123687 29.1713 0.46653 29.1713 1.04182C29.1713 1.61712 28.7049 2.08352 28.1296 2.08352H26.4776L28.8651 4.47102C29.2724 4.87727 29.2732 5.53684 28.867 5.94416C28.6715 6.13996 28.4062 6.25002 28.1296 6.25012Z" fill="#37474F"/>
</svg>
