<svg width="34" height="50" viewBox="0 0 34 50" fill="none" xmlns="http://www.w3.org/2000/svg">
<g clip-path="url(#clip0)">
<path d="M8.33675 50.0001C12.9368 50.0001 16.6701 46.2667 16.6701 41.6667V33.3334H8.33675C3.73675 33.3334 0.00341797 37.0667 0.00341797 41.6667C0.00341797 46.2667 3.73675 50.0001 8.33675 50.0001Z" fill="#0ACF83"/>
<path d="M0.00341797 24.9999C0.00341797 20.4 3.73675 16.6666 8.33675 16.6666H16.6701V33.3333H8.33675C3.73675 33.3333 0.00341797 29.5999 0.00341797 24.9999Z" fill="#A259FF"/>
<path d="M0.00341797 8.33333C0.00341797 3.73333 3.73675 0 8.33675 0H16.6701V16.6667H8.33675C3.73675 16.6667 0.00341797 12.9333 0.00341797 8.33333Z" fill="#F24E1E"/>
<path d="M16.6699 0H25.0033C29.6033 0 33.3366 3.73333 33.3366 8.33333C33.3366 12.9333 29.6033 16.6667 25.0033 16.6667H16.6699V0Z" fill="#FF7262"/>
<path d="M33.3366 24.9999C33.3366 29.5999 29.6033 33.3333 25.0033 33.3333C20.4033 33.3333 16.6699 29.5999 16.6699 24.9999C16.6699 20.4 20.4033 16.6666 25.0033 16.6666C29.6033 16.6666 33.3366 20.4 33.3366 24.9999Z" fill="#1ABCFE"/>
</g>
<defs>
<clipPath id="clip0">
<rect width="33.34" height="50" fill="white"/>
</clipPath>
</defs>
</svg>
