<svg width="50" height="50" viewBox="0 0 50 50" fill="none" xmlns="http://www.w3.org/2000/svg">
<path d="M24.9969 0C11.1938 0 0 11.4764 0 25.6336C0 36.9568 7.1625 46.563 17.1 49.9555C18.35 50.1917 18.8062 49.4002 18.8062 48.7205C18.8062 48.1109 18.7844 46.4992 18.7719 44.361C11.8188 45.9088 10.35 40.9238 10.35 40.9238C9.21562 37.9621 7.575 37.1738 7.575 37.1738C5.30312 35.5845 7.74375 35.6164 7.74375 35.6164C10.2531 35.7983 11.5719 38.2589 11.5719 38.2589C13.8031 42.1748 17.425 41.0451 18.85 40.3876C19.075 38.7313 19.7219 37.6015 20.4375 36.96C14.8875 36.3122 9.05 34.1133 9.05 24.2932C9.05 21.4943 10.025 19.2061 11.625 17.4125C11.3656 16.7646 10.5094 14.1572 11.8688 10.6307C11.8688 10.6307 13.9688 9.94132 18.7437 13.2572C20.7375 12.6891 22.875 12.4051 25.0031 12.3955C27.125 12.4083 29.2656 12.6891 31.2625 13.2604C36.0344 9.94451 38.1312 10.6339 38.1312 10.6339C39.4937 14.1636 38.6375 16.7678 38.3812 17.4157C39.9844 19.2093 40.95 21.4975 40.95 24.2964C40.95 34.142 35.1062 36.309 29.5375 36.9441C30.4344 37.7355 31.2344 39.2993 31.2344 41.6897C31.2344 45.1173 31.2031 47.8811 31.2031 48.7205C31.2031 49.4066 31.6531 50.2045 32.9219 49.9524C42.8438 46.5567 50 36.9536 50 25.6336C50 11.4764 38.8063 0 24.9969 0Z" fill="#5C6BC0"/>
</svg>
