<svg width="36" height="50" viewBox="0 0 36 50" fill="none" xmlns="http://www.w3.org/2000/svg">
<path d="M3.13008 0.000244141C2.55479 0.000244141 2.08838 0.466651 2.08838 1.04194V5.20864C2.08838 5.78394 2.55479 6.25034 3.13008 6.25034C3.70537 6.25034 4.17178 5.78394 4.17178 5.20864V1.04185C4.17178 0.466553 3.70537 0.000244141 3.13008 0.000244141Z" fill="#37474F"/>
<path d="M7.29654 4.16677H3.12984C2.55454 4.16677 2.08813 3.70037 2.08813 3.12507C2.08813 2.54978 2.55454 2.08337 3.12984 2.08337H7.29654C7.87183 2.08337 8.33824 2.54978 8.33824 3.12507C8.33824 3.70037 7.87193 4.16677 7.29654 4.16677Z" fill="#37474F"/>
<path d="M7.29634 6.25022C6.72104 6.25022 6.25464 5.78382 6.25464 5.20852V1.04182C6.25464 0.466529 6.72104 0.00012207 7.29634 0.00012207C7.87163 0.00012207 8.33804 0.466529 8.33804 1.04182V5.20852C8.33804 5.78382 7.87173 6.25022 7.29634 6.25022Z" fill="#37474F"/>
<path d="M15.6298 2.08352H11.4631C10.8878 2.08352 10.4214 1.61712 10.4214 1.04182C10.4214 0.466529 10.8878 0.00012207 11.4631 0.00012207H15.6298C16.2051 0.00012207 16.6715 0.466529 16.6715 1.04182C16.6715 1.61712 16.2051 2.08352 15.6298 2.08352Z" fill="#37474F"/>
<path d="M13.5463 6.25022C12.971 6.25022 12.5046 5.78382 12.5046 5.20852V1.04182C12.5046 0.466529 12.971 0.00012207 13.5463 0.00012207C14.1216 0.00012207 14.588 0.466529 14.588 1.04182V5.20852C14.588 5.78382 14.1217 6.25022 13.5463 6.25022Z" fill="#37474F"/>
<path d="M26.0464 6.25013C25.4711 6.25013 25.0047 5.78372 25.0047 5.20843V4.16673L23.7547 5.83343C23.376 6.29368 22.6959 6.3598 22.2357 5.98109C22.1818 5.93675 22.1324 5.88734 22.088 5.83343L20.838 4.16673V5.20843C20.838 5.78372 20.3716 6.25013 19.7963 6.25013C19.221 6.25013 18.7546 5.78372 18.7546 5.20843V1.04173C18.7546 0.466435 19.221 2.87112e-05 19.7963 2.87112e-05C20.1242 2.87112e-05 20.433 0.154423 20.6296 0.416728L22.9213 3.47093L25.213 0.416728C25.5583 -0.0435259 26.2112 -0.136788 26.6713 0.208427C26.9336 0.405107 27.088 0.713896 27.088 1.04173V5.20843C27.0881 5.78372 26.6218 6.25013 26.0464 6.25013Z" fill="#37474F"/>
<path d="M33.3383 6.25022H30.2133C29.638 6.25022 29.1716 5.78382 29.1716 5.20852V1.04182C29.1716 0.466529 29.638 0.00012207 30.2133 0.00012207C30.7886 0.00012207 31.255 0.466529 31.255 1.04182V4.16682H33.3383C33.9136 4.16682 34.38 4.63323 34.38 5.20852C34.38 5.78382 33.9136 6.25022 33.3383 6.25022Z" fill="#37474F"/>
<path d="M35.1505 10.7583C34.9533 10.5409 34.6733 10.4168 34.3797 10.4166H1.04631C0.471013 10.4141 0.00255535 10.8784 1.62887e-05 11.4536C-0.000179024 11.4879 0.00138394 11.5221 0.00460659 11.5562L3.12961 44.8895C3.16994 45.3171 3.46857 45.6761 3.88166 45.7937L18.465 49.9604C18.5591 49.9872 18.6567 50.0004 18.7545 50C18.8662 49.9999 18.9774 49.9823 19.0837 49.9479L31.5837 45.7812C31.9758 45.6507 32.2537 45.3009 32.292 44.8895L35.417 11.5562C35.4445 11.2646 35.3477 10.9749 35.1505 10.7583Z" fill="#FF5722"/>
<path d="M18.7547 41.6667C18.6581 41.6661 18.562 41.6521 18.4692 41.625L11.1776 39.5417C10.8197 39.4399 10.5433 39.1547 10.4526 38.7938L9.4109 34.6271C9.25875 34.0723 9.58522 33.4991 10.14 33.347C10.6948 33.1948 11.2679 33.5213 11.4201 34.0761C11.4244 34.0916 11.4282 34.1071 11.4317 34.1229L12.3275 37.7062L18.7317 39.5354L24.0359 37.7666L24.8942 29.1666H9.37965C8.85192 29.1708 8.40446 28.7797 8.33795 28.2562L7.29625 19.9229C7.22379 19.3522 7.6276 18.8308 8.1983 18.7582C8.24459 18.7524 8.29127 18.7495 8.33785 18.7499H28.1296C28.7049 18.7499 29.1713 19.2163 29.1713 19.7916C29.1713 20.3669 28.7049 20.8333 28.1296 20.8333H9.51715L10.2984 27.0833H26.0464C26.6217 27.0804 27.0903 27.5444 27.0932 28.1197C27.0934 28.1563 27.0917 28.1928 27.0881 28.2291L26.0464 38.6458C26.0059 39.0543 25.7295 39.401 25.3401 39.5313L19.0901 41.6146C18.9817 41.6496 18.8685 41.6673 18.7547 41.6667Z" fill="#FAFAFA"/>
</svg>
