<svg width="50" height="50" viewBox="0 0 50 50" fill="none" xmlns="http://www.w3.org/2000/svg">
<path d="M16.8187 50C16.0937 50 15.3833 49.8687 14.6937 49.6062C11.8291 48.5125 10.3103 45.3979 11.0978 42.5187L11.0666 42.5062L11.2541 42.0354L25.8312 4.1875C26.0499 3.625 25.9499 2.29167 25.8437 1.54792C25.8103 1.37083 25.8103 1.2125 25.8603 1.04792L25.877 1L25.8895 0.96875V0.954167L25.9083 0.914583C26.1333 0.30625 26.8458 0 28.0083 0C29.4103 0 31.3458 0.4375 33.3228 1.19375C34.9833 1.83333 36.4958 2.62917 37.5583 3.43333C38.8124 4.37083 39.3124 5.2125 39.0312 5.93333L38.9666 6.02708L38.9333 6.05833C38.8395 6.18542 38.7458 6.30833 38.6208 6.40208C37.9666 6.96667 37.0291 7.93333 36.8708 8.37083L22.1562 46.7479L22.1228 46.7354C21.0937 48.7104 19.0874 49.9792 16.8249 49.9875H16.8124L16.8187 50ZM12.2624 42.2542L12.2208 42.3583C11.2895 44.8604 12.5583 47.6854 15.0624 48.6458C15.627 48.8646 16.2103 48.9667 16.8062 48.9667C18.8291 48.9667 20.6187 47.7479 21.3645 45.8417L21.4208 45.7146L35.9187 8.02708C36.2228 7.21458 37.6687 5.90208 37.9583 5.65208L37.9916 5.61875C38.0166 5.5875 38.0333 5.5875 38.0333 5.55625C38.0333 5.43125 37.9062 4.99375 36.8728 4.2125C35.8749 3.4625 34.4687 2.7125 32.9062 2.11875C31.0978 1.43542 29.2228 0.995833 27.9728 0.995833C27.1603 0.995833 26.8812 1.16667 26.8374 1.25833V1.34167C26.8708 1.55833 27.1437 3.49792 26.7666 4.49792L12.2624 42.2479V42.2542V42.2542ZM30.9083 18.2812C30.9083 18.2812 28.8999 20.5917 27.0687 21.425C25.2353 22.2542 23.8833 22.0354 22.2353 23C20.5916 23.9604 19.7603 25.2979 19.7603 25.2979L13.0624 42.7187C12.3374 44.6854 13.4124 46.9896 15.4062 47.7604C17.4062 48.5292 19.6562 47.5104 20.4312 45.5604L30.9083 18.2812V18.2812ZM20.6353 39.0833C20.852 38.9979 21.1041 39.0833 21.1895 39.3021C21.277 39.5187 21.1895 39.7646 20.9708 39.8521C20.7541 39.9417 20.502 39.8521 20.4166 39.6354C20.3291 39.4333 20.4166 39.1854 20.6353 39.0833ZM18.5228 35.3292C18.2062 35.4708 17.827 35.3292 17.6958 35.0062C17.5499 34.6896 17.6958 34.3104 18.0166 34.1792C18.3374 34.0333 18.7145 34.1792 18.8458 34.4979C18.9999 34.8104 18.8624 35.1521 18.5228 35.3104V35.3292ZM19.1187 33.0458C18.8624 32.4458 19.1187 31.7479 19.7166 31.4667C20.3103 31.2083 20.9978 31.4667 21.2791 32.0604C21.5312 32.6625 21.2791 33.3604 20.6853 33.6375C20.0603 33.9 19.3749 33.6375 19.0916 33.0437L19.1187 33.0458V33.0458ZM24.1728 28.3417C24.4916 28.1875 24.8708 28.3417 25.002 28.6542C25.1478 28.975 25.002 29.3542 24.6833 29.4854C24.3603 29.6312 23.9812 29.4854 23.852 29.1625C23.6978 28.8458 23.852 28.4667 24.1728 28.3354V28.3417V28.3417ZM21.4791 25.4687C21.6978 25.3812 21.9499 25.4687 22.0333 25.6875C22.1228 25.9042 22.0333 26.1583 21.8166 26.2417C21.5999 26.3292 21.3458 26.2417 21.2645 26.025C21.1728 25.8042 21.277 25.5521 21.4791 25.4687V25.4687ZM28.502 2.375C28.7103 1.83125 30.5708 2.0375 32.6583 2.84583C34.7395 3.64583 36.2603 4.73958 36.0541 5.28333C35.8374 5.83333 33.977 5.625 31.8958 4.82292C29.802 4.02083 28.2833 2.92708 28.4958 2.37292H28.502V2.375Z" fill="#F2F2EF"/>
</svg>
