<svg width="57" height="50" viewBox="0 0 57 50" fill="none" xmlns="http://www.w3.org/2000/svg">
<path d="M14.6028 9.23953C11.7568 13.127 12.1113 18.1842 14.2795 22.31L14.439 22.6041L14.5467 22.7901C14.5667 22.8263 14.5898 22.862 14.6103 22.8971C14.648 22.9625 14.6857 23.0253 14.718 23.0897L14.9254 23.428L15.044 23.614L15.2848 23.9719L15.3925 24.1227C15.5002 24.2836 15.622 24.4435 15.7416 24.6013C15.7443 24.6053 15.748 24.6099 15.7513 24.6139C15.7701 24.639 15.7911 24.6642 15.8052 24.6893C15.9086 24.825 16.0206 24.9588 16.1284 25.0915L16.248 25.2362L16.5416 25.5791L16.6536 25.7068C16.7871 25.8572 16.9236 26.0054 17.063 26.1512L17.0716 26.1592C17.077 26.1658 17.0824 26.1693 17.0878 26.1758C17.2229 26.318 17.3615 26.4571 17.5037 26.5931L17.6373 26.7208L17.9697 27.0304L18.1054 27.1531C18.2548 27.2866 18.4065 27.4179 18.5606 27.5467L18.6468 27.6171L19.06 27.9489L19.2313 28.0786L19.5761 28.3299L19.7603 28.4631L20.2872 28.8226C20.3006 28.8311 20.3125 28.8402 20.326 28.8487C20.4499 28.9292 20.5754 29.0071 20.7014 29.085L20.8641 29.188L21.4524 29.5299L21.6151 29.6169L22.0568 29.8521C22.1376 29.8934 22.22 29.9326 22.3008 29.9718L22.6165 30.1226L22.6892 30.1558L22.8185 30.2151L23.3195 30.4353L23.4257 30.4855C23.6188 30.5657 23.8135 30.6426 24.0096 30.7163L24.1518 30.7696L24.7029 30.9636L24.7719 30.9867C24.9754 31.0537 25.1801 31.1174 25.386 31.1778L25.5341 31.22C25.7496 31.2803 25.9516 31.3522 26.1682 31.3909C39.931 33.7818 43.9298 23.5356 43.9298 23.5356C40.572 27.693 34.6124 28.7889 28.9657 27.5688C28.7518 27.5186 28.5444 27.4597 28.3354 27.4009L28.1781 27.3506C27.9745 27.2913 27.7719 27.2285 27.5715 27.1631L27.488 27.1345C27.3087 27.0742 27.1304 27.0113 26.9531 26.946L26.8022 26.8897C26.6083 26.8169 26.4157 26.7408 26.2248 26.6614L26.1095 26.6132L25.6225 26.397L25.4824 26.3327C25.3559 26.2733 25.2302 26.2125 25.1053 26.1502L24.8538 26.0245C24.7017 25.9468 24.5512 25.8665 24.4023 25.7837L24.2499 25.7033C24.0516 25.5927 23.8555 25.477 23.6616 25.3614C23.6077 25.3287 23.556 25.2941 23.5027 25.2609L23.0841 24.9965L22.9494 24.906L22.5535 24.6345L22.3779 24.5088L22.0207 24.2434L21.8613 24.1227L21.4168 23.7709C21.4017 23.7583 21.3845 23.7457 21.363 23.7321C21.2046 23.5999 21.0489 23.4642 20.8954 23.328L20.7639 23.2073L20.4278 22.8946L20.2963 22.769C20.1563 22.6332 20.0189 22.4951 19.8842 22.3547C19.8777 22.3477 19.8702 22.3411 19.8637 22.3346C19.7214 22.1863 19.582 22.0354 19.4457 21.8822L19.3364 21.7585L19.0347 21.4051L18.9242 21.2744L18.5768 20.8345C15.4415 16.7701 14.321 11.1649 16.8206 6.56109L14.6028 9.23953ZM23.4375 5.96387C21.3797 8.77904 21.4912 12.5464 23.0965 15.5234C23.365 16.0233 23.6692 16.5058 24.0069 16.9677C24.3151 17.3874 24.6571 17.8876 25.0665 18.2245C25.2147 18.3753 25.3698 18.5261 25.5282 18.6799C25.5681 18.7186 25.609 18.7553 25.65 18.794C25.8037 18.9364 25.961 19.0754 26.1219 19.2108C26.1283 19.2158 26.1343 19.2218 26.1413 19.2269C26.3224 19.3771 26.5076 19.5229 26.6967 19.6642L26.8216 19.7567C27.01 19.8948 27.2022 20.0283 27.3981 20.1569C27.4033 20.1609 27.4087 20.1647 27.4142 20.1684C27.5004 20.2252 27.5893 20.279 27.6771 20.3333C27.7191 20.3595 27.759 20.3871 27.801 20.4117C27.9415 20.4976 28.0839 20.5805 28.2282 20.6606L28.2885 20.6938L28.6656 20.8948C28.7098 20.9185 28.755 20.9391 28.8003 20.9612L29.0696 21.0909C29.0831 21.0974 29.0966 21.1025 29.1095 21.1085C29.2911 21.194 29.4737 21.2744 29.6606 21.3523C29.7005 21.3689 29.7414 21.384 29.7824 21.4001C29.9316 21.4604 30.0824 21.5187 30.2349 21.5745L30.4288 21.6419C30.5663 21.6896 30.7046 21.7354 30.8436 21.7791L31.0311 21.8359C31.2288 21.8947 31.4243 21.9681 31.6306 22.0008C42.2566 23.6738 44.7104 15.8979 44.7104 15.8979C42.499 18.9242 38.2168 20.369 33.6465 19.2419C33.4443 19.1918 33.2436 19.1365 33.0447 19.076C32.9839 19.0585 32.9241 19.0399 32.8637 19.0258C32.7226 18.9823 32.5823 18.9364 32.443 18.888L32.2528 18.8207C32.1004 18.7704 31.9496 18.7076 31.8003 18.6472C31.7594 18.6306 31.7185 18.6156 31.6781 18.598C31.4906 18.5214 31.3055 18.4398 31.1232 18.3531C31.0295 18.3094 30.9373 18.2637 30.8452 18.2184L30.6847 18.14C30.5662 18.0792 30.4489 18.0164 30.3329 17.9515L30.2489 17.9012C30.1054 17.8212 29.9635 17.7387 29.8233 17.6539C29.7802 17.6277 29.7382 17.6036 29.6951 17.5724L29.4193 17.399C29.2244 17.2703 29.0329 17.1372 28.845 16.9999L28.7157 16.9033C26.7155 15.4022 25.1296 13.3512 24.3759 11.0252C23.5856 8.61215 23.7564 5.90505 25.1301 3.70771L23.4375 5.96387ZM30.8662 3.51668C29.6531 5.21383 29.534 7.32119 30.3814 9.19529C31.2692 11.1845 33.0884 12.7454 35.2114 13.4849C35.2987 13.5161 35.3865 13.5437 35.4808 13.5719L35.5971 13.6071C35.7221 13.6443 35.8465 13.6875 35.9753 13.7106C41.8428 14.7879 43.4342 10.8492 43.8576 10.2696C42.4634 12.1774 40.1206 12.6353 37.2461 11.9723C37.0198 11.9195 36.7693 11.8416 36.5458 11.7682C36.2645 11.6732 35.9888 11.5643 35.7199 11.4419C35.2084 11.2078 34.7233 10.9264 34.2719 10.6019C31.6942 8.74687 30.0959 5.2088 31.7745 2.32727" fill="#0868AC"/>
<path d="M17.9083 39.5428L17.5108 40.8579L17.9083 39.5433V39.5428ZM19.9533 42.3972L19.5153 42.3946L19.9533 42.3972ZM19.8455 44.3607L17.2209 44.3698L19.8455 44.3607ZM20.395 42.4002L19.9565 42.3977L20.395 42.4002ZM20.0815 44.1938L20.5394 42.5666L20.0815 44.1938ZM29.7404 36.7L28.8893 40.4366L29.7404 36.7ZM27.5506 36.7L26.9041 39.4915L27.5506 36.7Z" fill="#131B28"/>
<path d="M29.5897 36.5316H27.7689C27.6676 36.5316 27.5674 36.607 27.5459 36.6995L26.253 42.2831C26.2315 42.3751 26.1313 42.4505 26.0305 42.4505H24.7414C23.4658 42.4505 23.6134 41.6276 23.8795 40.5L23.8876 40.4658L24.0422 39.6967L24.109 39.38L24.6972 36.6995C24.7177 36.607 24.6514 36.5311 24.5502 36.5311H22.6809C22.6293 36.5328 22.5798 36.5501 22.5397 36.5804C22.4997 36.6107 22.4713 36.6523 22.4589 36.699L21.6169 40.4261C21.1536 42.3988 21.2765 44.2799 23.7933 44.3387L23.866 44.3402H27.8158C27.9171 44.3402 28.0167 44.2648 28.0383 44.1723L29.7417 36.699C29.7632 36.6065 29.6969 36.5311 29.5962 36.5311L29.5897 36.5316ZM36.8552 42.4701C36.9565 42.4701 37.0168 42.5456 37.0023 42.638L36.8256 43.4449L36.8552 42.4701ZM36.6489 44.2522L36.8256 43.4449L36.6489 44.2522ZM36.427 44.4222L33.0708 44.4372L36.427 44.4222Z" fill="#131B28"/>
<path d="M31.9836 41.4316C31.9819 41.3431 32.0897 41.1913 32.191 41.1913L31.9636 41.1877C31.8559 42.1499 31.9836 41.4316 31.9836 41.4316ZM33.2366 44.4368H33.2016H33.2366ZM36.8551 42.4702C36.9563 42.4702 37.0167 42.5456 37.0021 42.6381L36.7963 43.5761L36.8551 42.4702ZM34.0985 44.4393H34.091H34.0985ZM33.6514 44.4363H33.6255H33.6514ZM33.5151 44.4368H33.472H33.5151ZM33.382 44.4368H33.3443H33.382ZM33.6309 44.4363H33.5205H33.6309Z" fill="#131B28"/>
<path d="M34.0915 44.4393L33.652 44.4408L34.0915 44.4393ZM36.4279 44.4267L34.098 44.4398L36.4279 44.4267ZM36.6434 44.2523L36.7915 43.5766L36.6434 44.2528V44.2523ZM33.4672 44.4368H33.3821H33.478H33.4672ZM33.2005 44.4368H33.0712H33.2005ZM33.339 44.4368H33.2312H33.339ZM6.69469 41.4517L6.97751 40.2814L6.65429 41.6186L6.61658 41.7865L6.69523 41.4507L6.69469 41.4517ZM10.081 36.5126H8.08078C8.0291 36.5144 7.97942 36.5317 7.939 36.5618C7.89858 36.5919 7.86955 36.6333 7.85614 36.68L7.47689 38.2384C7.47052 38.2585 7.46946 38.2798 7.47379 38.3005C7.47813 38.3211 7.48774 38.3405 7.5018 38.3569C7.51587 38.3733 7.53397 38.3863 7.55458 38.3949C7.57519 38.4034 7.5977 38.4071 7.62019 38.4058H9.63602C9.73729 38.4058 9.83749 38.3303 9.85904 38.2384L10.2254 36.6764C10.2469 36.5844 10.1823 36.509 10.0799 36.509L10.081 36.5126ZM9.64571 39.1106L9.05314 41.6432L9.64571 39.1106ZM3.83526 47.5033L5.48477 47.5154C4.99778 47.5154 4.19349 47.5068 3.83472 47.5028L3.83526 47.5033Z" fill="#131B28"/>
<path d="M7.25497 39.1105L6.97161 40.2808L7.25497 39.1105ZM9.50136 38.9431H7.485C7.43331 38.945 7.38363 38.9623 7.34322 38.9924C7.3028 39.0225 7.27377 39.0639 7.26036 39.1105L6.69472 41.4511L6.61607 41.7869L6.07736 44.1763C6.05068 44.2878 6.01832 44.398 5.9804 44.5066C5.9804 44.5066 5.6033 45.5522 4.97087 45.5407L4.34328 45.5296C4.2918 45.5309 4.24212 45.5476 4.20144 45.577C4.16076 45.6065 4.13119 45.6473 4.11702 45.6935L3.69953 47.3338C3.69293 47.3539 3.6916 47.3751 3.69565 47.3957C3.69971 47.4164 3.70902 47.4358 3.72281 47.4524C3.7366 47.4689 3.75446 47.4821 3.77488 47.4909C3.7953 47.4997 3.81768 47.5037 3.84013 47.5027L5.49018 47.5153C7.07181 47.5153 7.90519 46.6974 8.44012 44.3447L9.6522 39.1165C9.67375 39.0245 9.60803 38.9491 9.50675 38.9491L9.50136 38.9431ZM38.1399 44.3412C38.0387 44.3412 37.9783 44.2658 37.9945 44.1733L39.5109 37.5446L38.1399 44.3412ZM40.2473 44.1728L40.8615 41.3435L40.2473 44.1728Z" fill="#131B28"/>
<path d="M38.0165 44.2572C38.0041 44.2109 38.0111 44.0978 38.0326 44.0058L38.7523 40.8589L37.9938 44.1732C37.9723 44.2657 38.038 44.3411 38.1393 44.3411H38.3235C38.2222 44.3411 38.0283 44.3034 38.0165 44.2572ZM40.1282 44.3034C40.0732 44.3235 39.945 44.3411 39.8437 44.3411H40.028C40.0794 44.3392 40.1288 44.3218 40.1686 44.2914C40.2084 44.261 40.2366 44.2194 40.2489 44.1727L40.2855 44.0048C40.2656 44.0973 40.1777 44.2828 40.1239 44.3034H40.1282ZM40.5538 42.7581L40.8247 41.5094L40.5538 42.7581ZM46.5377 37.9884L46.6212 38.3101C46.6443 38.4021 46.5802 38.477 46.4795 38.4775" fill="#131B28"/>
<path d="M40.2839 44.0048L40.5533 42.7581L40.2839 44.0048ZM46.4553 37.6526L46.5377 37.9824L46.4553 37.6526ZM40.8248 41.5094L40.8991 41.1756L41.1884 39.9113L40.8609 41.343L40.8248 41.5089V41.5094ZM39.5357 37.4354L39.4726 37.7119L38.7529 40.8589L39.5114 37.5445L39.5357 37.4359V37.4354Z" fill="#131B28"/>
<path d="M46.6218 38.3102L46.5383 37.9885L46.4144 37.4857C46.2507 36.8925 45.7701 36.5492 44.7261 36.5492L39.9209 36.5462C39.8694 36.5478 39.8198 36.5651 39.7798 36.5954C39.7397 36.6257 39.7113 36.6674 39.699 36.7141L39.6246 37.0423L39.5169 37.5385L38.0387 43.9999C38.0171 44.0924 38.0101 44.2009 38.0225 44.2512C38.0349 44.3015 38.2288 44.3352 38.3296 44.3352H39.8487C39.95 44.3352 40.0777 44.3181 40.1331 44.2975C40.1886 44.2768 40.27 44.0964 40.2948 43.9988L40.8712 41.3375L41.488 38.641C41.5095 38.549 41.6092 38.4741 41.7099 38.4736L46.4898 38.4716C46.5906 38.4716 46.6547 38.3961 46.6315 38.3042L46.6218 38.3102ZM52.7754 35.398L52.4075 35.3995H50.8776C50.8216 35.4026 50.7669 35.4169 50.7173 35.4413C50.6677 35.4658 50.6243 35.4998 50.5899 35.5413L47.2069 40.1662C47.1498 40.2441 47.0846 40.2325 47.0614 40.1411L46.8125 39.1221C46.7991 39.0754 46.7701 39.034 46.7297 39.0039C46.6893 38.9738 46.6396 38.9565 46.5879 38.9547H44.4131C44.3119 38.9547 44.2515 39.0286 44.2795 39.1195L45.2492 42.3057C45.2772 42.3962 45.2788 42.5455 45.2546 42.6375L44.8236 44.1793C44.8163 44.1991 44.8144 44.2203 44.818 44.2409C44.8216 44.2616 44.8308 44.281 44.8445 44.2976C44.8583 44.3141 44.8762 44.3271 44.8968 44.3356C44.9173 44.344 44.9397 44.3475 44.9621 44.3457H47.1169C47.2182 44.3457 47.3216 44.2703 47.3464 44.1798L47.7774 42.638C47.8111 42.5295 47.8639 42.4269 47.9336 42.3344L53.4316 35.5312C53.4925 35.4558 53.4596 35.3945 53.3583 35.3955L52.7819 35.399L52.7754 35.398ZM35.496 39.388C35.4831 39.4885 35.3818 39.5639 35.2805 39.5639H32.5223C32.427 39.5639 32.3785 39.5036 32.3931 39.4282L32.3952 39.4146L32.4076 39.3709C32.677 38.7174 33.2076 38.2886 34.2155 38.2886C35.3505 38.2886 35.5719 38.8064 35.4949 39.388H35.496ZM34.6869 36.418C31.1476 36.418 30.3088 38.4228 29.8385 40.4462C29.3677 42.5088 29.4086 44.4377 33.0707 44.4377H33.6515L34.0986 44.4362L36.429 44.4231C36.4802 44.4209 36.5291 44.4033 36.5687 44.373C36.6082 44.3426 36.6361 44.3011 36.6483 44.2547L37.0022 42.64C37.0227 42.5475 36.9564 42.4721 36.8551 42.4721H33.5626C32.2535 42.4721 31.864 42.1474 32.0073 41.1927H37.2705C37.3567 41.1912 37.4348 41.1424 37.4655 41.066C37.4709 41.0525 37.4763 41.0379 37.4784 41.0233C38.2595 38.2735 38.0354 36.42 34.6879 36.42L34.6869 36.418ZM17.958 39.3769L17.9084 39.5413C17.9084 39.5418 17.5108 40.8564 17.5108 40.8564L17.1133 42.1705C17.0968 42.2168 17.0656 42.2574 17.0238 42.2868C16.9821 42.3163 16.9317 42.3332 16.8795 42.3354H14.7753C13.1797 42.3354 12.7912 41.1706 13.1797 39.4528C13.5675 37.6959 14.3298 36.6035 15.9001 36.4929C18.0463 36.3421 18.4751 37.7507 17.958 39.3764V39.3769ZM19.4006 42.2348C19.4006 42.2348 20.3918 39.9877 20.6181 38.6892C20.9251 36.9514 19.9932 34.4313 16.3919 34.4313C12.8112 34.4313 11.2565 36.8372 10.6634 39.4584C10.0708 42.0926 10.8476 44.403 14.4074 44.3849L19.8407 44.3663C19.8928 44.364 19.9429 44.3467 19.984 44.3168C20.0252 44.287 20.0555 44.246 20.0708 44.1994L20.5286 42.5717C20.5361 42.5519 20.5381 42.5308 20.5345 42.5102C20.531 42.4896 20.522 42.4701 20.5084 42.4535C20.4947 42.4369 20.4769 42.4238 20.4564 42.4153C20.436 42.4068 20.4136 42.4032 20.3913 42.4048L19.5148 42.3997C19.4286 42.3992 19.3801 42.3474 19.3898 42.2791C19.392 42.2665 19.3952 42.2539 19.4006 42.2409V42.2348Z" fill="#131B28"/>
<path d="M37.1261 40.7313C37.1261 40.7936 37.0722 40.8439 37.0054 40.8439C36.9386 40.8439 36.8848 40.7936 36.8848 40.7313C36.8848 40.6689 36.9386 40.6187 37.0054 40.6187C37.0722 40.6187 37.1261 40.6689 37.1261 40.7313Z" fill="#131B28"/>
</svg>
