<svg width="38" height="50" viewBox="0 0 38 50" fill="none" xmlns="http://www.w3.org/2000/svg">
<path d="M37.211 35.1875V3.35194C37.211 1.86728 35.9962 0.652344 34.5114 0.652344H12.5561L1.53064 11.6776V35.1875H37.211Z" fill="#EDF4FC"/>
<path d="M1.53064 35.1875V46.4606C1.53064 47.9452 2.74536 49.1602 4.23023 49.1602H34.5114C35.996 49.1602 37.211 47.9454 37.211 46.4606V35.1875H1.53064Z" fill="#FC657E"/>
<path d="M18.3803 38.6566H17.4889C17.4285 38.6566 17.3795 38.7056 17.3795 38.766V43.899C17.3795 44.464 17.0974 44.8182 16.4997 44.8182C15.8043 44.8182 15.5313 44.3352 15.5313 43.6345C15.5313 43.5741 15.4823 43.5251 15.4219 43.5251H14.5308C14.4704 43.5251 14.4214 43.5741 14.4214 43.6345C14.4214 45.0546 15.248 45.85 16.5389 45.85C17.7869 45.85 18.4899 45.0734 18.4899 43.899V38.766C18.4897 38.7056 18.4407 38.6566 18.3803 38.6566V38.6566Z" fill="black"/>
<path d="M20.7804 41.0414C20.4363 40.6339 20.4632 39.5023 21.6714 39.5023C22.3946 39.5023 22.8194 39.9468 22.9156 40.4517C22.9255 40.5033 22.9705 40.5405 23.023 40.5405H23.9831C24.0488 40.5405 24.1 40.483 24.0916 40.4174C23.9595 39.389 23.135 38.5685 21.6714 38.5685C20.8889 38.5685 20.1106 38.82 19.6932 39.4815C19.284 40.1301 19.3564 41.0697 19.7171 41.5636C20.6737 42.8724 23.0707 42.4161 23.0707 43.9088C23.0707 44.4763 22.7172 44.9162 21.9654 44.9162C21.1593 44.9162 20.6737 44.3883 20.6146 43.7999C20.6089 43.7439 20.5619 43.7014 20.5057 43.7014H19.5554C19.4915 43.7014 19.4408 43.7561 19.4465 43.8204C19.557 45.0791 20.6555 45.85 21.9945 45.85C23.4546 45.85 24.2395 44.9409 24.2395 43.8795C24.2397 41.5973 21.5966 42.0099 20.7804 41.0414V41.0414Z" fill="black"/>
<path d="M34.5114 49.707H4.23026C2.44023 49.707 0.984009 48.2506 0.984009 46.4606V35.1875C0.984009 34.8854 1.22879 34.6406 1.53088 34.6406C1.83298 34.6406 2.07776 34.8854 2.07776 35.1875V46.4606C2.07776 47.6475 3.04354 48.6133 4.23026 48.6133H34.5114C35.6983 48.6133 36.6641 47.6475 36.6641 46.4606V35.1875C36.6641 34.8854 36.9089 34.6406 37.211 34.6406C37.5131 34.6406 37.7578 34.8854 37.7578 35.1875V46.4606C37.7578 48.2506 36.3014 49.707 34.5114 49.707Z" fill="black"/>
<path d="M1.53064 11.6776H9.85648C11.3411 11.6776 12.5561 10.4628 12.5561 8.97797V0.652344L1.53064 11.6776Z" fill="#FC657E"/>
<path d="M37.2109 35.7344H1.53064C1.22855 35.7344 0.983765 35.4896 0.983765 35.1875V11.6776C0.983765 11.5325 1.0413 11.3934 1.14389 11.2908L12.1693 0.265594C12.2719 0.163 12.4108 0.105469 12.5561 0.105469H34.5114C36.3014 0.105469 37.7578 1.56191 37.7578 3.35194V35.1875C37.7578 35.4896 37.513 35.7344 37.2109 35.7344ZM2.07751 34.6406H36.6639V3.35194C36.6639 2.165 35.6981 1.19922 34.5111 1.19922H12.7825L2.07751 11.9042V34.6406Z" fill="black"/>
<path d="M9.85646 12.2244H1.69031C1.38821 12.2244 1.14343 11.9797 1.14343 11.6776C1.14343 11.3755 1.38821 11.1307 1.69031 11.1307H9.85646C11.0434 11.1307 12.0092 10.1649 12.0092 8.97797V0.871094C12.0092 0.569 12.254 0.324219 12.5561 0.324219C12.8582 0.324219 13.1029 0.569 13.1029 0.871094V8.97819C13.1029 10.7682 11.6465 12.2244 9.85646 12.2244Z" fill="black"/>
<path d="M28.4246 21.2051L23.7459 17.6898C23.2811 17.3405 22.6185 17.4313 22.2665 17.8998C21.9165 18.3655 22.0108 19.0292 22.4765 19.3792L26.031 22.0497L22.4765 24.7202C22.0108 25.0704 21.9165 25.7341 22.2665 26.1996C22.6183 26.6675 23.2824 26.7581 23.7459 26.4096L28.4248 22.8941C28.987 22.4721 28.9876 21.6284 28.4246 21.2051V21.2051Z" fill="#FC657E"/>
<path d="M16.4593 24.7202L12.905 22.0497L16.4593 19.3792C16.9261 19.0283 17.0203 18.3666 16.6693 17.8998C16.3195 17.4341 15.6556 17.3398 15.1898 17.6896L10.5112 21.2051C10.2433 21.4066 10.0895 21.7146 10.0895 22.0499C10.0895 22.3853 10.2433 22.693 10.5112 22.8945L15.1898 26.4098C15.6564 26.7605 16.3186 26.6666 16.6693 26.1998C17.0197 25.7337 16.9272 25.072 16.4593 24.7202V24.7202Z" fill="#FC657E"/>
<path d="M21.4525 16.3285C20.9084 16.136 20.3007 16.4151 20.1036 16.9716L16.7563 26.4225C16.5614 26.9729 16.8489 27.5762 17.3995 27.7713C17.9529 27.9673 18.5542 27.6759 18.748 27.1282L22.0954 17.6773C22.2909 17.1256 22.0017 16.5232 21.4525 16.3285V16.3285Z" fill="#FC657E"/>
<path d="M23.1136 27.1681C22.6262 27.1681 22.1445 26.9474 21.8295 26.5287C21.2984 25.8221 21.4413 24.8148 22.1478 24.2834L25.1204 22.05L22.148 19.8166C21.8061 19.5595 21.5843 19.1842 21.5242 18.7598C21.464 18.3354 21.5723 17.9132 21.8295 17.5713C22.0874 17.2283 22.4633 17.0063 22.8881 16.9468C23.3111 16.888 23.7329 16.9962 24.0746 17.2528L28.7532 20.7681C29.1601 21.074 29.3935 21.5414 29.3935 22.05C29.3935 22.5586 29.1601 23.0259 28.7532 23.3317L24.0744 26.8472C23.7867 27.0635 23.4487 27.1681 23.1136 27.1681V27.1681ZM23.1121 18.0246C23.0882 18.0246 23.0642 18.0263 23.0401 18.0296C22.9054 18.0486 22.7857 18.1191 22.7037 18.2285C22.6221 18.337 22.5877 18.471 22.607 18.606C22.6262 18.7412 22.6964 18.8606 22.8049 18.9422L26.3594 21.6127C26.4968 21.716 26.5777 21.8779 26.5777 22.05C26.5777 22.2222 26.4968 22.3838 26.3594 22.4873L22.8049 25.1578C22.5803 25.3267 22.5348 25.6469 22.7037 25.8716C22.8725 26.0962 23.1928 26.1415 23.4172 25.9731L28.0961 22.4575C28.2254 22.3604 28.2997 22.2117 28.2997 22.05C28.2997 21.8884 28.2256 21.7398 28.0959 21.6423L23.4174 18.127C23.3282 18.0598 23.2219 18.0246 23.1121 18.0246V18.0246Z" fill="black"/>
<path d="M15.8214 27.169C15.4764 27.169 15.1422 27.0581 14.8613 26.847L10.1827 23.3317C9.77601 23.0261 9.54282 22.5588 9.5426 22.0502C9.5426 21.541 9.77579 21.0737 10.1824 20.7679L14.8611 17.2526C15.203 16.9956 15.6252 16.8871 16.0498 16.9475C16.4741 17.0076 16.8495 17.2294 17.1065 17.5713C17.364 17.9137 17.4725 18.3361 17.4124 18.76C17.352 19.184 17.1302 19.5589 16.7878 19.8164L13.8154 22.0498L16.7878 24.2832C17.1308 24.5409 17.3529 24.9165 17.4126 25.3407C17.4723 25.7644 17.3636 26.1861 17.1065 26.5285C16.8493 26.8708 16.4741 27.0926 16.05 27.1528C15.9736 27.1637 15.8973 27.169 15.8214 27.169V27.169ZM15.8229 18.025C15.7133 18.025 15.6072 18.0602 15.5184 18.1267L10.8398 21.6421C10.7088 21.7405 10.6366 21.8853 10.6366 22.0498C10.6366 22.2139 10.709 22.3587 10.84 22.4571L15.5186 25.9724C15.6276 26.0545 15.7608 26.0892 15.8966 26.0696C16.0314 26.0505 16.1506 25.9799 16.2324 25.8711C16.3144 25.762 16.349 25.6281 16.33 25.4934C16.3109 25.3586 16.2403 25.2394 16.1311 25.1571L12.5764 22.4869C12.4391 22.3836 12.3581 22.2217 12.3581 22.0496C12.3581 21.8774 12.4391 21.7158 12.5764 21.6123L16.1307 18.9418C16.2399 18.8598 16.3103 18.7406 16.3295 18.6058C16.3488 18.4713 16.3142 18.337 16.2322 18.2282C16.1506 18.1195 16.0314 18.0493 15.8962 18.0301C15.8717 18.027 15.8474 18.025 15.8229 18.025V18.025Z" fill="black"/>
<path d="M17.751 28.379C17.5738 28.379 17.3938 28.3495 17.2175 28.2871C16.384 27.992 15.9459 27.0737 16.241 26.2403L19.5883 16.7892C19.8834 15.9557 20.8017 15.5178 21.6349 15.8131C22.4681 16.1084 22.9058 17.0265 22.611 17.8597L19.2636 27.3108C19.0313 27.9678 18.4114 28.379 17.751 28.379V28.379ZM21.1 16.8148C20.89 16.8148 20.693 16.9456 20.619 17.1543L17.2717 26.6052C17.1779 26.8701 17.3172 27.1621 17.5819 27.2559C17.8468 27.35 18.1391 27.2107 18.2327 26.946L21.58 17.4951C21.6736 17.2302 21.5345 16.9384 21.2698 16.8443C21.2138 16.8242 21.1565 16.8148 21.1 16.8148V16.8148Z" fill="black"/>
</svg>
