<svg width="50" height="50" viewBox="0 0 50 50" fill="none" xmlns="http://www.w3.org/2000/svg">
<path d="M25 50C38.8071 50 50 38.8071 50 25C50 11.1929 38.8071 0 25 0C11.1929 0 0 11.1929 0 25C0 38.8071 11.1929 50 25 50Z" fill="#263364"/>
<path d="M34.9967 19.6187C34.6963 19.8096 34.3768 20.1043 34.0382 20.5021L32.9881 19.452H28.6376V26.763L14.7924 12.9178H9.8584V37.1544L22.5878 49.8838C23.3816 49.9597 24.1861 50 25.0001 50C37.293 50 47.5134 41.1276 49.6073 29.4372L40.1057 19.9355C38.5654 19.0185 36.5157 18.6536 34.9967 19.6187Z" fill="#151F45"/>
<path d="M9.8584 37.1544V12.9178H14.7924V33.0371H27.0607V37.1543H9.8584V37.1544Z" fill="#C9E1F6"/>
<path d="M33.3216 37.1544H28.6377V19.4522H32.9883V21.9692C33.7326 20.7802 34.4022 19.9968 34.9969 19.6189C36.5158 18.6536 38.5656 19.0187 40.1059 19.9357L38.6557 24.0195C37.3841 23.1961 35.914 22.9025 34.7885 23.7944C34.3326 24.1556 33.9743 24.8086 33.7134 25.753C33.2352 27.4816 33.3216 31.7945 33.3216 37.1544Z" fill="#C9E1F6"/>
</svg>
