<svg width="50" height="50" viewBox="0 0 50 50" fill="none" xmlns="http://www.w3.org/2000/svg">
<path d="M34.1771 11.4604C33.9375 11.4604 33.775 11.4896 33.6062 11.5292V11.5563H33.6354C33.7479 11.7729 33.9396 11.9313 34.0812 12.125C34.1937 12.3479 34.2896 12.5708 34.4021 12.7917L34.4312 12.7604C34.6271 12.6229 34.7229 12.4021 34.7229 12.0667C34.6396 11.9688 34.6271 11.8708 34.5562 11.775C34.4729 11.6354 34.2937 11.5667 34.1812 11.4563L34.1771 11.4604ZM12.0208 38.9479H10.0896C10.0353 35.8787 9.84759 32.8133 9.52708 29.7604H9.51042L6.57292 38.9479H5.10417L2.1875 29.7604H2.16667C1.93853 32.8181 1.80305 35.882 1.76042 38.9479H0C0.114583 34.8521 0.4 31.0104 0.854167 27.4271H3.25L6.03125 35.8938H6.04792L8.85417 27.4271H11.1354C11.6396 31.625 11.9354 35.4688 12.0271 38.9479H12.0208ZM20.3896 30.4479C19.6021 34.7083 18.5646 37.8083 17.2812 39.7396C16.2771 41.2313 15.1771 41.975 13.9833 41.975C13.6646 41.975 13.275 41.8792 12.8042 41.6875V40.6583C13.0333 40.6938 13.3042 40.7125 13.6083 40.7125C14.1667 40.7125 14.6146 40.5563 14.9562 40.25C15.3667 39.875 15.5708 39.4542 15.5708 38.9896C15.5708 38.6667 15.4104 38.0104 15.0917 37.0229L12.9792 30.4479H14.875L16.3896 35.3646C16.7312 36.4813 16.875 37.2604 16.8167 37.7042C17.65 35.4875 18.2292 33.0646 18.5562 30.4479H20.3896ZM46.0667 38.9479H40.5875V27.4271H42.4312V37.5313H46.0667V38.9479ZM39.15 39.2292L37.0333 38.1875C37.2208 38.0292 37.4021 37.8583 37.5646 37.6667C38.4667 36.6125 38.9146 35.0458 38.9146 32.9729C38.9146 29.1604 37.4187 27.2521 34.425 27.2521C32.9583 27.2521 31.8125 27.7354 30.9875 28.7042C30.0917 29.7625 29.6417 31.3208 29.6417 33.3813C29.6417 35.4063 30.0375 36.8938 30.8375 37.8396C31.5667 38.6938 32.6646 39.1208 34.1354 39.1208C34.6854 39.1208 35.1896 39.0521 35.6458 38.9167L38.4062 40.525L39.1562 39.2292H39.15ZM32.2917 36.6417C31.8229 35.8917 31.5896 34.6833 31.5896 33.025C31.5896 30.1229 32.4729 28.6708 34.2354 28.6708C35.1583 28.6708 35.8396 29.0188 36.2708 29.7125C36.7375 30.4667 36.9708 31.6625 36.9708 33.3021C36.9708 36.2271 36.0875 37.6938 34.325 37.6938C33.3979 37.6938 32.7208 37.3458 32.2875 36.6521L32.2917 36.6417ZM28.8375 35.7563C28.8375 36.7354 28.4792 37.5396 27.7625 38.1646C27.0458 38.7896 26.0896 39.1021 24.8792 39.1021C23.7479 39.1021 22.6625 38.7438 21.6021 38.0292L22.0958 37.0375C23.0083 37.4958 23.8312 37.7208 24.575 37.7208C25.2667 37.7208 25.8104 37.5688 26.2062 37.2625C26.4041 37.1134 26.5638 36.9195 26.6725 36.6969C26.7811 36.4742 26.8355 36.229 26.8312 35.9813C26.8312 35.2938 26.3521 34.7104 25.4812 34.2208C24.6729 33.7771 23.0583 32.8521 23.0583 32.8521C22.1792 32.2125 21.7417 31.5271 21.7417 30.4C21.7417 29.4625 22.0687 28.7125 22.7208 28.1396C23.3771 27.5604 24.2208 27.275 25.2625 27.275C26.3292 27.275 27.3042 27.5583 28.1792 28.1292L27.7354 29.1208C27.0363 28.8137 26.2823 28.6507 25.5187 28.6417C24.9292 28.6417 24.4729 28.7833 24.1562 29.0708C23.9956 29.204 23.866 29.3707 23.7767 29.5593C23.6875 29.7479 23.6407 29.9538 23.6396 30.1625C23.6396 30.8458 24.1271 31.4333 25.0271 31.9333C25.8458 32.3813 27.5 33.3292 27.5 33.3292C28.4021 33.9646 28.85 34.6417 28.85 35.7625L28.8375 35.7563ZM48.3833 23.5646C47.2688 23.5354 46.4042 23.6479 45.6812 23.9563C45.4729 24.0396 45.1396 24.0396 45.1104 24.3042C45.225 24.4146 45.2417 24.5958 45.3396 24.75C45.5062 25.0292 45.7937 25.4021 46.0604 25.5979C46.3521 25.8271 46.6437 26.0479 46.95 26.2438C47.4917 26.5771 48.1062 26.775 48.6375 27.1104C48.9396 27.3063 49.2479 27.5542 49.5542 27.7625C49.7062 27.8667 49.8042 28.0542 50 28.1208V28.0792C49.9042 27.9542 49.875 27.7729 49.7812 27.6333C49.6417 27.4938 49.5021 27.3688 49.3646 27.2313C48.9556 26.6922 48.4674 26.2181 47.9167 25.825C47.4708 25.5208 46.4958 25.0958 46.3125 24.5854L46.2854 24.5563C46.5896 24.5292 46.9521 24.4188 47.2437 24.3354C47.7167 24.2104 48.15 24.2375 48.6396 24.1146C48.8604 24.0583 49.0833 23.9896 49.3062 23.9188V23.7938C49.0562 23.5438 48.8687 23.2042 48.6104 22.9708C47.8894 22.3406 47.1204 21.7673 46.3104 21.2563C45.8729 20.9771 45.3187 20.7979 44.8583 20.5604C44.6917 20.4771 44.4125 20.4354 44.3167 20.2958C44.0667 19.9917 43.9208 19.5875 43.7437 19.225C43.3347 18.4314 42.9546 17.6233 42.6042 16.8021C42.3542 16.2563 42.2021 15.7125 41.8958 15.2125C40.4583 12.8438 38.9021 11.4083 36.5083 10.0042C35.9937 9.71251 35.3771 9.58751 34.725 9.43335C34.3771 9.41668 34.0292 9.39168 33.6833 9.3771C33.4542 9.27918 33.2333 9.0146 33.0375 8.88751C32.2458 8.38751 30.1958 7.30418 29.6125 8.73751C29.2375 9.64168 30.1687 10.5333 30.4917 10.9917C30.7312 11.3104 31.0333 11.675 31.2 12.0333C31.2979 12.275 31.325 12.5229 31.4229 12.775C31.6437 13.3875 31.8542 14.0708 32.1458 14.6438C32.2979 14.9354 32.4646 15.2417 32.6604 15.5042C32.7729 15.6563 32.9646 15.7271 33.0083 15.9771C32.8125 16.2604 32.8 16.6729 32.6875 17.0188C32.1875 18.5958 32.3833 20.5458 33.0917 21.7063C33.3146 22.0521 33.8458 22.8188 34.5562 22.525C35.1812 22.275 35.0437 21.4833 35.2229 20.7854C35.2646 20.6188 35.2375 20.5083 35.3229 20.3958V20.4271C35.5187 20.8188 35.7146 21.1917 35.8937 21.5833C36.3229 22.2667 37.0729 22.975 37.7 23.4479C38.0333 23.6979 38.2979 24.1313 38.7146 24.2854V24.2438H38.6833C38.5938 24.1229 38.475 24.0646 38.3625 23.9667C38.0983 23.7081 37.8546 23.4295 37.6333 23.1333C37.0463 22.3313 36.5259 21.4826 36.0771 20.5958C35.8479 20.1583 35.6562 19.6875 35.4729 19.2563C35.3896 19.0896 35.3896 18.8396 35.25 18.7563C35.0417 19.0604 34.7354 19.325 34.5833 19.7C34.3187 20.3 34.2917 21.0375 34.1917 21.8042C34.1354 21.8188 34.1625 21.8042 34.1354 21.8333C33.6896 21.725 33.5375 21.2625 33.3708 20.875C32.9542 19.8854 32.8854 18.2958 33.2458 17.1563C33.3437 16.8646 33.7604 15.9438 33.5937 15.6646C33.5062 15.4 33.2312 15.2479 33.0792 15.0333C32.8835 14.7541 32.716 14.4561 32.5792 14.1438C32.2458 13.3646 32.0792 12.5021 31.7167 11.7229C31.55 11.3625 31.2583 10.9854 31.0208 10.6542C30.7562 10.2792 30.4646 10.0146 30.2542 9.57085C30.1854 9.41876 30.0875 9.16668 30.1979 9.00001C30.2271 8.88751 30.2854 8.84376 30.3937 8.81251C30.5771 8.66251 31.0917 8.85835 31.2729 8.94168C31.7875 9.15001 32.2208 9.34585 32.6521 9.63751C32.8479 9.77501 33.0583 10.0396 33.3083 10.1083H33.6C34.0458 10.2063 34.5479 10.1375 34.9646 10.2604C35.7042 10.4979 36.3708 10.8438 36.9688 11.2188C38.8111 12.3957 40.3096 14.0387 41.3125 15.9813C41.4792 16.3021 41.5521 16.5958 41.7042 16.9292C41.9958 17.6167 42.3562 18.3104 42.6521 18.975C42.9437 19.6313 43.225 20.3 43.6437 20.8438C43.8521 21.1354 44.6896 21.2875 45.0646 21.4396C45.3417 21.5646 45.7729 21.6792 46.0229 21.8313C46.5021 22.1229 46.9687 22.4563 47.4187 22.7771C47.6479 22.9354 48.3417 23.2833 48.3833 23.5646V23.5646Z" fill="#F2F2EF"/>
</svg>
