<svg width="38" height="50" viewBox="0 0 38 50" fill="none" xmlns="http://www.w3.org/2000/svg">
<path d="M36.5182 35.3638V3.27255C36.5182 1.77597 35.2937 0.55127 33.7969 0.55127H11.6653L0.55127 11.6651V35.3638H36.5182Z" fill="#EDF4FC"/>
<path d="M30.2194 21.2548L25.3852 17.6226C24.9047 17.2616 24.2205 17.3553 23.8564 17.8395C23.4948 18.3207 23.592 19.0065 24.0734 19.3683L27.7459 22.1278L24.0732 24.8872C23.592 25.2491 23.4946 25.9348 23.8562 26.416C24.2198 26.8993 24.9058 26.9931 25.3848 26.633L30.2192 23.0005C30.8004 22.5637 30.8013 21.692 30.2194 21.2548Z" fill="#8690FA"/>
<path d="M12.884 24.8869L9.21143 22.1274L12.884 19.368C13.3662 19.0055 13.4637 18.3219 13.101 17.8394C12.7396 17.3583 12.0536 17.2608 11.5724 17.6222L6.73821 21.2547C6.46126 21.4628 6.30249 21.781 6.30249 22.1277C6.30249 22.4741 6.46148 22.7921 6.73821 23.0002L11.5724 26.6324C12.0547 26.9947 12.7389 26.8977 13.101 26.4154C13.4628 25.9341 13.3673 25.2503 12.884 24.8869Z" fill="#8690FA"/>
<path d="M18.5707 16.5289C17.3116 16.5289 16.0862 16.9836 15.4291 18.0632C15.1308 18.5532 14.9795 19.1219 14.9795 19.7534C14.9795 19.9603 15.1471 20.1278 15.3539 20.1278H16.5954C16.8022 20.1278 16.9698 19.9603 16.9698 19.7534C16.9698 18.8427 17.6146 18.336 18.5283 18.336C19.4069 18.336 19.9599 18.8207 19.9599 19.7534C19.9599 20.4352 19.7687 20.8787 19.3758 21.1095C18.9239 21.3748 18.2924 21.5093 17.4984 21.5093H16.9341C16.7272 21.5093 16.5597 21.6769 16.5597 21.8837V24.4233C16.5597 24.6302 16.7272 24.9089 16.9341 24.9089H18.1473C18.3541 24.9089 18.5217 24.63 18.5217 24.4233V23.1168C20.6031 22.9697 21.9784 21.8934 21.9784 19.7534C21.9784 17.7126 20.5782 16.5289 18.5707 16.5289Z" fill="#8690FA"/>
<path d="M18.3309 24.9087H16.779C16.5721 24.9087 16.4045 25.0763 16.4045 25.2831V26.7927C16.4045 26.9995 16.5721 27.1671 16.779 27.1671H18.3309C18.5377 27.1671 18.7053 26.9995 18.7053 26.7927V25.2831C18.7053 25.0763 18.5377 24.9087 18.3309 24.9087Z" fill="#8690FA"/>
<path d="M0.55127 46.7275C0.55127 48.2241 1.77575 49.4488 3.27255 49.4488H33.7969C35.2935 49.4488 36.5182 48.2243 36.5182 46.7275V35.3639H0.55127V46.7275Z" fill="#8690FA"/>
<path d="M33.7969 50.0001H3.27255C1.46814 50.0001 0 48.5319 0 46.7275V35.3639C0 35.0594 0.246748 34.8126 0.551268 34.8126C0.855788 34.8126 1.10254 35.0594 1.10254 35.3639V46.7275C1.10254 47.924 2.07607 48.8975 3.27255 48.8975H33.7969C34.9934 48.8975 35.9669 47.924 35.9669 46.7275V35.3639C35.9669 35.0594 36.2137 34.8126 36.5182 34.8126C36.8227 34.8126 37.0695 35.0594 37.0695 35.3639V46.7275C37.0695 48.5319 35.6013 50.0001 33.7969 50.0001Z" fill="black"/>
<path d="M0.55127 11.6651H8.94403C10.4406 11.6651 11.6653 10.4406 11.6653 8.94381V0.55127L0.55127 11.6651Z" fill="#8690FA"/>
<path d="M36.5182 35.9151H0.551268C0.246748 35.9151 0 35.6684 0 35.3638V11.665C0 11.5189 0.057993 11.3786 0.161411 11.2752L11.2752 0.161411C11.3786 0.0579935 11.5186 0 11.665 0H33.7967C35.6011 0 37.0692 1.46814 37.0692 3.27255V35.3638C37.0695 35.6684 36.8225 35.9151 36.5182 35.9151ZM1.10254 34.8126H35.9667V3.27255C35.9667 2.07607 34.9932 1.10254 33.7967 1.10254H11.8935L1.10254 11.8935V34.8126Z" fill="black"/>
<path d="M8.94391 12.2164H0.809815C0.505293 12.2164 0.258545 11.9696 0.258545 11.6651C0.258545 11.3606 0.505293 11.1138 0.809815 11.1138H8.94391C10.1404 11.1138 11.1139 10.1403 11.1139 8.9438V0.813233C11.1139 0.508711 11.3607 0.261963 11.6652 0.261963C11.9697 0.261963 12.2165 0.508711 12.2165 0.813233V8.94403C12.2165 10.7484 10.7483 12.2164 8.94391 12.2164Z" fill="black"/>
<path d="M12.3043 38.8608H10.0924C10.0316 38.8608 9.98218 38.9102 9.98218 38.9711V45.9325C9.98218 45.9934 10.0316 46.0428 10.0924 46.0428H10.991C11.0519 46.0428 11.1013 45.9934 11.1013 45.9325V43.2384H12.3043C13.8162 43.2384 14.7943 42.4968 14.7943 41.0545C14.7943 39.7455 14.0042 38.8608 12.3043 38.8608ZM11.1013 39.8317H12.2254C13.1202 39.8317 13.6554 40.133 13.6554 41.0545C13.6554 41.9455 13.1275 42.2673 12.2254 42.2673H11.1013V39.8317Z" fill="black"/>
<path d="M21.0726 38.8608H20.1642C20.1033 38.8608 20.0539 38.9102 20.0539 38.9711V41.8725H16.7394V38.9711C16.7394 38.9102 16.69 38.8608 16.6292 38.8608H15.7306C15.6698 38.8608 15.6204 38.9102 15.6204 38.9711V45.9325C15.6204 45.9934 15.6698 46.0428 15.7306 46.0428H16.6292C16.69 46.0428 16.7394 45.9934 16.7394 45.9325V42.8238H20.0539V45.9325C20.0539 45.9934 20.1033 46.0428 20.1642 46.0428H21.0726C21.1335 46.0428 21.1829 45.9934 21.1829 45.9325V38.9711C21.1829 38.9102 21.1335 38.8608 21.0726 38.8608Z" fill="black"/>
<path d="M24.7262 38.8608H22.5143C22.4534 38.8608 22.4041 38.9102 22.4041 38.9711V45.9325C22.4041 45.9934 22.4534 46.0428 22.5143 46.0428H23.4129C23.4737 46.0428 23.5231 45.9934 23.5231 45.9325V43.2384H24.7262C26.238 43.2384 27.2162 42.4968 27.2162 41.0545C27.2162 39.7455 26.4261 38.8608 24.7262 38.8608ZM23.5231 39.8317H24.6473C25.5421 39.8317 26.0773 40.133 26.0773 41.0545C26.0773 41.9455 25.5494 42.2673 24.6473 42.2673H23.5231V39.8317Z" fill="black"/>
<path d="M24.7317 27.402C24.2323 27.402 23.7388 27.176 23.4162 26.7469C22.872 26.0225 23.0184 24.9908 23.7423 24.4461L26.8286 22.1272L23.7425 19.8084C23.0184 19.2639 22.8718 18.232 23.416 17.5078C23.6804 17.1561 24.0656 16.9288 24.5006 16.8677C24.9344 16.8068 25.3664 16.9182 25.7165 17.1815L30.5507 20.8137C30.9677 21.127 31.2067 21.606 31.2067 22.1272C31.2067 22.6485 30.9675 23.1272 30.5507 23.4406L25.7163 27.073C25.4215 27.2951 25.0753 27.402 24.7317 27.402ZM24.7304 17.9543C24.7051 17.9543 24.6797 17.9561 24.6541 17.9596C24.5112 17.9797 24.3844 18.0547 24.2973 18.1704C24.1183 18.4086 24.1666 18.7482 24.4049 18.9272L28.0775 21.6867C28.216 21.7907 28.2976 21.9539 28.2976 22.1275C28.2976 22.301 28.216 22.464 28.0775 22.5683L24.4047 25.3277C24.1666 25.5067 24.1185 25.8463 24.2973 26.0845C24.4764 26.3226 24.816 26.3709 25.0539 26.1921L29.8883 22.5597C30.0255 22.4567 30.1042 22.299 30.1042 22.1277C30.1042 21.9563 30.0255 21.7987 29.8883 21.6955L25.0541 18.0633C24.9597 17.9918 24.8468 17.9543 24.7304 17.9543Z" fill="black"/>
<path d="M12.2251 27.4032C11.8714 27.4032 11.529 27.2894 11.2414 27.0733L6.40701 23.4411C5.99047 23.128 5.75144 22.6494 5.75122 22.1279C5.75122 21.606 5.99025 21.1273 6.40701 20.8142L11.2412 17.1817C11.5916 16.9182 12.0236 16.8071 12.4591 16.8693C12.8941 16.931 13.2785 17.1581 13.5418 17.5085C13.8055 17.8594 13.9169 18.292 13.8551 18.7264C13.7934 19.1606 13.566 19.5449 13.2152 19.8089L10.1292 22.1277L13.2152 24.4464C13.9396 24.9908 14.086 26.0228 13.5418 26.7469C13.2783 27.0978 12.8937 27.3251 12.4591 27.3866C12.381 27.3976 12.3027 27.4032 12.2251 27.4032ZM12.2264 17.9553C12.1102 17.9553 11.9978 17.9923 11.9036 18.0631L7.06942 21.6955C6.9305 21.8001 6.85376 21.9535 6.85376 22.1277C6.85376 22.3017 6.9305 22.4552 7.06942 22.5595L11.9036 26.1917C12.0189 26.2786 12.1612 26.3154 12.3043 26.2949C12.4472 26.2746 12.5735 26.1999 12.6602 26.0843C12.8395 25.8459 12.7909 25.5066 12.5528 25.3273L8.88045 22.5679C8.74197 22.4638 8.66038 22.3006 8.66038 22.1271C8.66038 21.9535 8.74197 21.7906 8.88045 21.6863L12.5528 18.9273C12.6683 18.8404 12.7433 18.7138 12.7636 18.5712C12.7839 18.4285 12.7473 18.2863 12.6604 18.1707C12.5737 18.0556 12.4474 17.9811 12.3041 17.9606C12.278 17.957 12.2522 17.9553 12.2264 17.9553Z" fill="black"/>
<path d="M18.1473 25.46C17.8428 25.46 17.596 25.2133 17.596 24.9088C17.596 24.6655 17.7535 24.4591 17.972 24.3859L17.9707 23.1165C17.9707 22.8269 18.1945 22.587 18.4831 22.5665C20.4368 22.4285 21.4274 21.4818 21.4274 19.7531C21.4274 18.0792 20.3594 17.0798 18.5707 17.0798C17.3645 17.0798 16.3912 17.5427 15.9001 18.3495C15.6827 18.7065 15.5603 19.1184 15.5356 19.5762H16.4254C16.5063 18.497 17.331 17.7844 18.5286 17.7844C19.7515 17.7844 20.5114 18.5387 20.5114 19.7531C20.5114 20.6344 20.2234 21.2507 19.6554 21.5844C19.1178 21.9001 18.3921 22.0602 17.4988 22.0602H17.1109V24.3864C17.3286 24.46 17.4853 24.6662 17.4853 24.9088C17.4853 25.2133 17.2386 25.46 16.9341 25.46C16.3885 25.46 16.0084 24.9134 16.0084 24.423V21.8834C16.0084 21.3729 16.4236 20.9577 16.9341 20.9577H17.4984C18.183 20.9577 18.7356 20.8457 19.0966 20.6338C19.1738 20.5883 19.4086 20.4503 19.4086 19.7531C19.4086 19.1539 19.1372 18.8869 18.5283 18.8869C18.1522 18.8869 17.5211 18.9994 17.5211 19.7531C17.5211 20.2633 17.1059 20.6787 16.5954 20.6787H15.3539C14.8437 20.6787 14.4282 20.2635 14.4282 19.7531C14.4282 19.019 14.6066 18.3537 14.9583 17.7762C15.654 16.6331 16.9707 15.9773 18.5707 15.9773C20.9758 15.9773 22.5299 17.4593 22.5299 19.7531C22.5299 21.9006 21.2781 23.2847 19.0732 23.6108V24.423C19.073 24.9134 18.6928 25.46 18.1473 25.46ZM17.1109 24.4161V24.4219C17.1109 24.419 17.1111 24.4175 17.1118 24.4168C17.1116 24.4166 17.1114 24.4164 17.1109 24.4161Z" fill="black"/>
<path d="M18.3309 27.7184H16.779C16.2687 27.7184 15.8533 27.3032 15.8533 26.7927V25.2831C15.8533 24.7729 16.2685 24.3574 16.779 24.3574H18.3309C18.8412 24.3574 19.2566 24.7726 19.2566 25.2831V26.7927C19.2566 27.3032 18.8412 27.7184 18.3309 27.7184ZM16.9558 26.6159H18.1541V25.46H16.9558V26.6159ZM18.3309 25.46H18.3331H18.3309Z" fill="black"/>
</svg>
