<svg width="50" height="50" viewBox="0 0 50 50" fill="none" xmlns="http://www.w3.org/2000/svg">
<g clip-path="url(#clip0_671_45)">
<path d="M49.0822 30.6725C49.0536 30.5852 49.0142 30.5019 48.9649 30.4244C48.6753 29.876 47.9716 29.7123 46.8661 29.9408C43.4218 30.6515 42.088 30.2142 41.6045 29.901C44.4003 25.634 46.6982 20.4802 47.9401 15.6725C48.5055 13.4835 49.603 8.33146 48.1947 5.815C48.1047 5.64276 47.9995 5.47891 47.8803 5.32542C45.1941 1.89292 41.2516 0.0516696 36.4791 0.00104459C33.3651 -0.0318721 30.7072 0.722086 29.9872 0.999795C29.6306 0.933235 29.2722 0.876547 28.9124 0.829795C28.0105 0.666482 27.0968 0.577434 26.1803 0.563545C23.7174 0.525211 21.5891 1.11396 19.8266 2.31479C18.0405 1.64584 9.84989 -1.11229 4.78093 2.47896C1.94989 4.48459 0.643015 8.06938 0.896348 13.134C0.981557 14.8381 1.95239 20.0798 3.48447 25.0998C4.44239 28.2383 5.4401 30.7288 6.47072 32.5623C7.62281 34.6335 8.81635 35.8817 10.0422 36.2904C10.9743 36.601 12.402 36.5906 13.9132 34.774C15.5824 32.7667 17.2263 30.9702 17.9645 30.1763C18.8709 30.6669 19.8528 30.9315 20.8603 30.9621C20.8605 30.9649 20.8608 30.9678 20.8611 30.9706C20.6857 31.1796 20.514 31.3918 20.3461 31.6069C19.6401 32.5031 19.4932 32.6896 17.2207 33.1575C16.5745 33.2908 14.8574 33.6448 14.8324 34.8481C14.8272 35.1031 14.9009 35.3292 15.0238 35.529C15.4966 36.4104 16.9439 36.7992 17.1384 36.8479C19.9186 37.5427 22.3559 37.0396 24.1622 35.434C24.1268 40.0819 24.3236 44.6369 24.8818 46.0327C25.3426 47.1846 26.4689 50.0004 30.0259 50C30.5478 50 31.1224 49.9394 31.7543 49.804C35.4666 49.0079 37.0786 47.3673 37.7022 43.75C38.0153 41.936 38.5389 37.7598 38.8247 35.2058C38.8599 35.0594 38.8991 34.9544 38.9434 34.9221C38.9449 34.921 39.0886 34.824 39.8334 34.986C39.8639 34.9926 39.8947 34.9974 39.9257 35.0002L40.4547 35.0467L40.4857 35.0488C42.2499 35.1288 44.4678 34.7517 45.7591 34.1513C47.1003 33.5288 49.5209 32.0006 49.0822 30.6725V30.6725ZM4.93968 24.7427C3.39072 19.6681 2.48572 14.5654 2.41406 13.1346C2.18781 8.61084 3.28302 5.46188 5.66885 3.77479C9.49531 1.06938 15.7518 2.64813 18.3939 3.50396C18.3872 3.51063 18.3801 3.51667 18.3734 3.52354C14.1572 7.78188 14.2572 15.0569 14.2676 15.5017C14.2672 15.6731 14.2813 15.916 14.3013 16.2502C14.3738 17.4738 14.5088 19.751 14.1482 22.3302C13.813 24.7269 14.5518 27.0727 16.1749 28.766C16.3428 28.9413 16.5182 29.1058 16.6995 29.2606C15.977 30.0344 14.407 31.7452 12.7359 33.7556C11.5532 35.1775 10.7366 34.905 10.468 34.8154C9.65156 34.5431 8.77427 33.5923 7.88864 32.0606C6.88947 30.3127 5.88135 27.8279 4.93968 24.7427V24.7427ZM17.4547 35.3408C17.0982 35.2517 16.7732 35.105 16.5543 34.9717C16.7395 34.8896 17.0489 34.7838 17.5611 34.6781C20.2347 34.1279 20.6476 33.7394 21.5493 32.5944C21.7559 32.3319 21.9901 32.0346 22.3145 31.6723C22.3842 31.5941 22.4366 31.5019 22.468 31.4019C22.8239 31.0867 23.0355 31.1729 23.3782 31.315C23.7032 31.4496 24.0195 31.8567 24.148 32.305C24.2086 32.5167 24.277 32.9185 24.0539 33.2308C22.1699 35.8679 19.4255 35.8338 17.4547 35.3408ZM21.8172 27.0325L21.7078 27.3263C21.4307 28.0692 21.173 28.7598 21.0132 29.4158C19.6228 29.4115 18.2699 28.8175 17.2413 27.7442C15.9332 26.3794 15.3391 24.4808 15.6111 22.535C15.992 19.8102 15.8513 17.4375 15.7757 16.1629C15.7653 15.9844 15.7559 15.8281 15.7503 15.7048C16.3663 15.1588 19.2209 13.6294 21.2564 14.0956C22.1853 14.3085 22.7513 14.9408 22.9866 16.029C24.2045 21.6619 23.1478 24.0096 22.2986 25.8963C22.1236 26.285 21.9584 26.6523 21.8172 27.0325V27.0325ZM37.1582 36.5585C37.123 36.9269 37.0836 37.3419 37.0295 37.8L36.7253 38.7131C36.7012 38.7855 36.6884 38.8612 36.6874 38.9375C36.6751 39.9265 36.5749 40.2894 36.4478 40.7485C36.3157 41.226 36.1659 41.7675 36.0741 42.9517C35.8449 45.8981 34.2445 47.5906 31.0382 48.2777C27.8809 48.955 27.3209 47.2427 26.8274 45.7325C26.7769 45.5742 26.7234 45.4168 26.6672 45.2604C26.2184 44.04 26.2691 42.319 26.3393 39.9373C26.3736 38.7681 26.2874 35.9763 25.6514 34.4244C25.6605 33.8135 25.6734 33.1933 25.6909 32.5665C25.6931 32.4871 25.6823 32.4078 25.6591 32.3319C25.6389 32.1854 25.6083 32.0406 25.5676 31.8985C25.3122 31.0063 24.6899 30.2598 23.9432 29.9504C23.6466 29.8275 23.102 29.6021 22.4478 29.7694C22.5874 29.1944 22.8293 28.5454 23.0916 27.8425L23.2018 27.5467C23.3257 27.2133 23.4809 26.8681 23.6455 26.5025C24.5341 24.5283 25.7509 21.8248 24.4301 15.7167C23.9355 13.429 22.2834 12.3119 19.7793 12.5713C18.2778 12.7267 16.9045 13.3325 16.2193 13.6798C16.0819 13.7494 15.9459 13.8217 15.8113 13.8967C16.0026 11.5917 16.7251 7.28396 19.4274 4.55854C19.6281 4.35628 19.839 4.16437 20.0593 3.98354C20.1686 3.96222 20.2717 3.91634 20.3607 3.84938C21.9282 2.66063 23.8909 2.07729 26.1982 2.115C27.0505 2.12896 27.8684 2.18563 28.6445 2.28375C32.6841 3.02209 35.4026 5.29792 37.0526 7.24771C38.7491 9.2525 39.6676 11.2717 40.0343 12.3608C37.2776 12.0804 35.4022 12.625 34.4516 13.9838C32.3836 16.9398 35.5828 22.6773 37.1205 25.4346C37.4024 25.94 37.6459 26.3767 37.7224 26.5623C38.223 27.7758 38.8714 28.5858 39.3447 29.1773C39.4897 29.3585 39.6305 29.5344 39.7374 29.6877C38.9024 29.9283 37.4024 30.4846 37.5391 33.2648C37.5134 33.5904 37.4509 34.1958 37.3653 34.9623C37.2693 35.395 37.2191 35.9213 37.1582 36.5585V36.5585ZM39.0134 33.1813C38.9291 31.4488 39.5741 31.2677 40.2566 31.076C40.351 31.0502 40.4448 31.022 40.5378 30.9915C40.6258 31.0695 40.7193 31.1412 40.8174 31.206C42.0055 31.9904 44.1139 32.0838 47.0816 31.486C46.6616 31.8546 46.0005 32.3181 45.0955 32.7383C44.2418 33.1348 42.8128 33.4321 41.4553 33.4958C39.9559 33.5658 39.193 33.3277 39.0134 33.1813V33.1813ZM40.1999 13.8663C40.1876 14.5971 40.087 15.2604 39.9803 15.9531C39.8657 16.6981 39.747 17.4685 39.717 18.4035C39.6874 19.3135 39.8011 20.2596 39.9111 21.1746C40.1332 23.0225 40.3611 24.9252 39.4789 26.8025C39.3324 26.5429 39.2019 26.2746 39.088 25.9992C38.9782 25.7333 38.7403 25.3063 38.4107 24.7154C37.1282 22.4152 34.1245 17.0288 35.6622 14.8308C36.4528 13.7002 38.4555 13.6515 40.1999 13.8663V13.8663ZM40.6757 28.4781C40.6169 28.4032 40.5577 28.3286 40.498 28.2544L40.4241 28.1619C41.937 25.6629 41.6411 23.1906 41.3778 20.9983C41.2697 20.0988 41.1676 19.2492 41.1934 18.4513C41.2203 17.6052 41.3322 16.8798 41.4403 16.1781C41.5734 15.3135 41.7086 14.4192 41.6713 13.3646C41.6993 13.254 41.7105 13.1233 41.6959 12.9683C41.6007 11.9569 40.4461 8.93084 38.093 6.19125C36.8272 4.71771 34.9897 3.07209 32.4911 1.94229C33.5851 1.72021 35.0595 1.51834 36.7086 1.555C40.9826 1.65 44.3641 3.24979 46.7591 6.31C46.8099 6.37644 46.8564 6.44617 46.898 6.51875C48.4045 9.34292 46.3226 19.5919 40.6757 28.4781V28.4781ZM22.3078 15.736C22.2557 16.1098 21.6643 16.6163 21.0139 16.6163C20.9575 16.6163 20.9011 16.6124 20.8453 16.6046C20.4551 16.5504 20.0609 16.3046 19.7913 15.9471C19.6959 15.821 19.5407 15.5763 19.5716 15.3546C19.583 15.271 19.6259 15.1494 19.7643 15.0446C20.0105 14.8583 20.4972 14.7892 21.0343 14.864C21.6932 14.9558 22.373 15.2677 22.3078 15.736V15.736ZM38.8297 14.879C38.8528 15.044 38.7276 15.2977 38.5107 15.5252C38.3684 15.6746 38.0691 15.9338 37.6609 15.9902C37.6092 15.9974 37.557 16.001 37.5047 16.001C36.8932 16.001 36.3768 15.5127 36.3366 15.2267C36.2866 14.859 36.8868 14.5796 37.5055 14.4933C38.1243 14.4071 38.7786 14.5117 38.8297 14.879V14.879Z" fill="#F2F2EF"/>
</g>
<defs>
<clipPath id="clip0_671_45">
<rect width="50" height="50" fill="white"/>
</clipPath>
</defs>
</svg>
