<svg width="50" height="50" viewBox="0 0 50 50" fill="none" xmlns="http://www.w3.org/2000/svg">
<path d="M25 50C38.8071 50 50 38.8071 50 25C50 11.1929 38.8071 0 25 0C11.1929 0 0 11.1929 0 25C0 38.8071 11.1929 50 25 50Z" fill="#3E2D66"/>
<path d="M35.9384 19.7312C35.6408 19.9203 35.3241 20.2123 34.9887 20.6066L33.9482 19.5661H30.1698L25.6064 15.0028C24.7741 14.1361 23.7914 13.5539 22.6578 13.2569C21.7547 13.0148 19.817 12.8936 16.8441 12.8936H8.99902V37.1062L21.6713 49.7785C22.7603 49.9234 23.8711 49.9996 24.9998 49.9996C37.528 49.9996 47.9032 40.7841 49.7178 28.7622L41.0006 20.045C40.0205 19.4616 39.0021 19.1697 37.9451 19.1697C37.1963 19.1697 36.5273 19.357 35.9384 19.7312Z" fill="#251B3D"/>
<path d="M8.99902 37.106V12.8934H16.8441C19.8171 12.8934 21.7548 13.0147 22.6578 13.2568C24.0451 13.6202 25.2066 14.4103 26.1427 15.6268C27.0784 16.8437 27.5466 18.4154 27.5466 20.3422C27.5466 21.8286 27.2767 23.0785 26.7373 24.0913C26.1977 25.1044 25.5123 25.8998 24.6811 26.4778C23.8495 27.0559 23.0047 27.4386 22.1458 27.6258C20.9786 27.8569 19.2886 27.9726 17.0755 27.9726H13.8878V37.1059L8.99902 37.106ZM13.8877 16.9894V23.86H16.5634C18.49 23.86 19.7783 23.7336 20.4281 23.4801C21.0777 23.2269 21.5868 22.8305 21.9559 22.2909C22.3246 21.7515 22.5092 21.1239 22.5092 20.4081C22.5092 19.5272 22.2503 18.8006 21.733 18.2279C21.2153 17.6556 20.5603 17.2976 19.7676 17.1543C19.1839 17.0444 18.0112 16.9891 16.2496 16.9891H13.8877V16.9894Z" fill="#8C5BA4"/>
<path d="M34.2786 37.1059H29.6375V19.5658H33.9481V22.0597C34.6857 20.8816 35.3492 20.1054 35.9384 19.7309C36.5273 19.3567 37.1962 19.1693 37.9451 19.1693C39.0021 19.1693 40.0204 19.4612 41.0006 20.0447L39.5637 24.0912C38.7818 23.5849 38.055 23.3314 37.3836 23.3314C36.7337 23.3314 36.1833 23.5106 35.7319 23.8682C35.2803 24.2261 34.9252 24.8732 34.6666 25.8088C34.4077 26.7448 34.2785 28.7047 34.2785 31.6885L34.2786 37.1059Z" fill="#8C5BA4"/>
</svg>
