<svg width="50" height="50" viewBox="0 0 50 50" fill="none" xmlns="http://www.w3.org/2000/svg">
<path d="M25 50C38.8071 50 50 38.8071 50 25C50 11.1929 38.8071 0 25 0C11.1929 0 0 11.1929 0 25C0 38.8071 11.1929 50 25 50Z" fill="#2A4997"/>
<path d="M33.4007 19.5878C31.4047 19.5878 29.8749 19.953 28.8089 20.6814L23.9877 15.9243C23.2375 15.1273 22.3485 14.593 21.3193 14.3234C19.8375 13.9261 16.2988 13.9999 9.15845 13.9999V35.5571L23.5589 49.9576C24.036 49.9848 24.5162 50 24.9999 50C36.5686 50 46.3004 42.1414 49.1523 31.4719L38.9559 21.2755L38.9554 21.276C37.6645 19.9722 35.7357 19.5878 33.4007 19.5878Z" fill="#263364"/>
<path d="M9.15845 35.5572V14C16.2989 14 19.8375 13.9264 21.3193 14.3235C22.5544 14.647 23.5886 15.3505 24.4219 16.4336C26.0363 18.5326 25.9647 22.0665 24.9513 23.9698C24.0346 25.6909 22.4879 26.7627 20.8634 27.1167C18.9508 27.4955 16.1191 27.4255 13.511 27.4255V35.5572H9.15845ZM13.5111 17.6469V23.7641C17.9216 23.7641 19.6414 23.9068 20.6943 22.3671C21.3933 21.3447 21.3785 19.7267 20.4958 18.7497C19.3926 17.5299 18.1873 17.6469 13.5111 17.6469Z" fill="#76C8DA"/>
<path d="M26.2542 31.1016L30.4009 30.4692C30.7869 32.2277 31.9728 32.925 33.7388 32.925C35.0863 32.925 36.6945 32.587 36.6945 31.2339C36.6945 30.3243 35.9337 30.1239 35.0181 29.9105C31.685 29.1753 29.5723 28.5039 28.6804 27.896C27.4452 27.053 26.8277 25.8814 26.8277 24.3815C26.8277 23.0287 27.3619 21.8916 28.4304 20.97C29.4988 20.0486 31.1556 19.5878 33.4006 19.5878C36.8126 19.5878 39.3582 20.4072 40.3119 23.7198L36.4151 24.4404C36.2483 23.8328 35.9322 23.367 35.4666 23.0434C34.4021 22.304 31.9592 22.4827 31.1361 23.014C30.5488 23.4177 30.4821 24.1558 31.0773 24.6021C32.2737 25.4842 37.3862 25.8055 39.5472 27.6019C40.4098 28.3372 40.8413 29.3617 40.8413 30.6752C40.8413 32.1066 40.2432 33.3367 39.0473 34.3661C37.8511 35.3954 36.0817 35.9101 33.7389 35.9101C31.6115 35.9101 29.9279 35.4789 28.6878 34.6161C27.4475 33.7535 26.6365 32.582 26.2542 31.1016Z" fill="#76C8DA"/>
</svg>
