<svg width="50" height="50" viewBox="0 0 50 50" fill="none" xmlns="http://www.w3.org/2000/svg">
<path d="M15.6729 16.2104C15.2833 16.2104 14.8771 16.2334 14.4604 16.2834L14.7021 17.0292C15.0667 16.9917 15.4333 16.9792 15.8 16.9792H15.925L15.675 16.2104H15.6729ZM20.4958 16.9563L20.4458 17.7896C20.8625 17.9292 21.2667 18.0771 21.6708 18.2417L21.725 17.4C21.6104 17.3375 21.2917 17.1834 20.4958 16.9563V16.9563ZM10.1042 17.4354C9.77068 17.6067 9.44208 17.7874 9.11875 17.9771L9.70208 18.8646C10.0292 18.6625 10.3437 18.4688 10.6729 18.3063L10.1042 17.4375V17.4354ZM16.125 17.4813C15.6701 17.4735 15.2152 17.4922 14.7625 17.5375C13.8396 17.6209 12.8687 17.8896 11.8875 18.3188C8.93333 19.6063 5.89167 22.3146 3.90208 25.6313C1.9125 28.9459 1.2125 31.8813 0.985417 33.1375C0.908333 33.5584 0.88125 33.7896 0.88125 33.7896H10.8604C10.8604 33.7896 10.7417 33.248 10.6604 32.3771C10.6147 31.8701 10.5918 31.3612 10.5917 30.8521C10.5917 29.7063 10.7062 28.3459 11.1 26.9813C11.1979 26.6417 11.3146 26.298 11.45 25.9605C11.5854 25.623 11.7417 25.2917 11.9187 24.9625C12.2729 24.3084 12.7125 23.675 13.2646 23.1C13.8167 22.525 14.4812 22.0063 15.2708 21.5667C15.7875 21.3167 16.725 20.8063 18.075 20.5479C18.525 20.4625 19.0187 20.4021 19.5604 20.3896C20.1021 20.3792 20.6896 20.4146 21.3208 20.5146C22.5833 20.7167 24.025 21.1813 25.6437 22.0563C26.4521 22.4959 27.3062 23.0354 28.2021 23.6979C28.4312 23.5104 28.6417 23.3605 28.6417 23.3605C28.6417 23.3605 28.2333 22.95 27.5021 22.3479C26.7729 21.7438 25.725 20.9479 24.4458 20.175C23.8083 19.7875 23.1083 19.4042 22.3667 19.0542C21.6045 18.6953 20.8186 18.389 20.0146 18.1375C19.1805 17.8788 18.3261 17.6906 17.4604 17.575C17.0179 17.5202 16.5729 17.4889 16.1271 17.4813H16.125ZM20.4708 20.9188L20.4229 21.7167C20.8396 21.7292 21.2562 21.7792 21.6729 21.8667L21.725 21.0854C21.3114 21.0005 20.8923 20.9448 20.4708 20.9188ZM17.5167 21.2229C17.0875 21.35 16.7229 21.4875 16.4062 21.6271L16.6958 22.4979C17.0604 22.3209 17.4271 22.1709 17.7938 22.0584L17.5167 21.225V21.2229ZM5 21.273C4.67292 21.5875 4.35417 21.9042 4.06458 22.2209L5.0375 23.0542C5.30208 22.7146 5.59375 22.373 5.89583 22.0584L5 21.273V21.273ZM14.0417 23.1438C13.75 23.4104 13.4875 23.7 13.2604 23.9917L13.8667 24.898C14.0812 24.5834 14.3333 24.2938 14.6125 24.0021L14.0417 23.1438ZM16.1021 24.7834V33.7896H18.5271V31.6167L20.625 33.7896H24.2104L21.3958 30.9479C21.3958 30.9479 23.6042 30.7605 23.6042 27.9063C23.6042 25.0521 20.9271 24.7834 20.9271 24.7834H16.1021V24.7834ZM27.1271 24.85C25.3729 24.85 24.7813 26.4396 24.7813 27.198V33.7896H27.2417V32.2105H29.5542V33.7896H31.9417V27.198C31.9417 25.2771 30.1958 24.85 29.5896 24.85H27.1271V24.85ZM33.0646 24.85V33.7875H35.6271V24.85H33.0646ZM36.675 24.85V33.7896H42.675V31.4771H39.225V24.85H36.675ZM45.7562 24.85C44.7458 24.85 43.3958 25.6813 43.3958 27.2334V28.0313C43.3958 29.5854 44.7333 30.3792 45.7562 30.3792C48.5979 30.3917 45.075 30.3792 47.7 30.3792V31.4896L43.5229 31.5021V33.7896H47.6521C48.4979 33.7896 49.95 33.1709 50 31.4417V30.5584C50 29.0792 48.7896 28.2063 47.6521 28.2063H45.5937V27.148H49.6708V24.85H45.7542H45.7562ZM11.8083 26.6667C11.6543 27.1212 11.5276 27.5845 11.4292 28.0542L12.45 28.8625C12.5021 28.3709 12.5937 27.8792 12.7208 27.3855L11.8083 26.6667ZM27.9979 26.9792H28.8458C29.5271 26.9792 29.5417 27.4709 29.5417 27.4709V29.6584H27.2292V27.4709C27.2292 27.4709 27.2292 26.9792 28 26.9792H27.9979ZM18.5271 27.0438H20.4708C20.4708 27.0438 21.0167 27.2459 21.0167 28.0646C21.0167 28.8875 20.4583 29.1042 20.4583 29.1042H18.5271V27.0438ZM0.63125 27.1709C0.391667 27.7125 0.127083 28.3438 0 28.6854L1.45208 29.2167C1.61875 28.7875 1.88125 28.1667 2.08333 27.7L0.63125 27.1709V27.1709ZM11.2396 31.2605C11.2646 31.9292 11.3292 32.4771 11.3937 32.8542L12.9062 33.3959C12.779 32.8547 12.6789 32.3075 12.6062 31.7563L11.2396 31.2605V31.2605Z" fill="#F2F2EF"/>
</svg>
