<svg width="38" height="50" viewBox="0 0 38 50" fill="none" xmlns="http://www.w3.org/2000/svg">
<path d="M36.5182 35.3638V3.27255C36.5182 1.77597 35.2937 0.55127 33.7969 0.55127H11.6653L0.55127 11.6651V35.3638H36.5182Z" fill="#EDF4FC"/>
<path d="M18.539 18.6432C23.3651 18.6432 27.2775 17.7321 27.2775 16.6082C27.2775 15.4842 23.3651 14.5731 18.539 14.5731C13.7129 14.5731 9.80054 15.4842 9.80054 16.6082C9.80054 17.7321 13.7129 18.6432 18.539 18.6432Z" fill="#F98FA6"/>
<path d="M18.539 18.643C13.713 18.643 9.80054 17.7318 9.80054 16.6079V28.0994C9.80054 29.2233 13.7128 30.1345 18.539 30.1345C23.3653 30.1345 27.2775 29.2233 27.2775 28.0994V16.6081C27.2775 17.7321 23.365 18.643 18.539 18.643Z" fill="#FC657E"/>
<path d="M0.55127 35.3639V46.7275C0.55127 48.2241 1.77575 49.4488 3.27255 49.4488H33.7969C35.2935 49.4488 36.5182 48.2243 36.5182 46.7275V35.3639H0.55127Z" fill="#FC657E"/>
<path d="M33.7969 50.0001H3.27255C1.46792 50.0001 0 48.5319 0 46.7275V35.3639C0 35.0594 0.246747 34.8126 0.551268 34.8126C0.855788 34.8126 1.10254 35.0594 1.10254 35.3639V46.7275C1.10254 47.924 2.07607 48.8975 3.27255 48.8975H33.7971C34.9936 48.8975 35.9669 47.924 35.9669 46.7275V35.3639C35.9669 35.0594 36.2137 34.8126 36.5182 34.8126C36.8227 34.8126 37.0695 35.0594 37.0695 35.3639V46.7275C37.0692 48.5319 35.6013 50.0001 33.7969 50.0001Z" fill="black"/>
<path d="M0.55127 11.6651H8.94399C10.4406 11.6651 11.6653 10.4406 11.6653 8.94377V0.55127L0.55127 11.6651Z" fill="#C7D7E5"/>
<path d="M36.518 35.9151H0.551268C0.246747 35.9151 0 35.6684 0 35.3638V11.665C0 11.5189 0.058214 11.3786 0.161411 11.2752L11.2754 0.161411C11.3788 0.0579935 11.5189 0 11.6653 0H33.7971C35.6015 0 37.0695 1.46814 37.0695 3.27255V35.3638C37.0692 35.6684 36.8225 35.9151 36.518 35.9151ZM1.10254 34.8126H35.9667V3.27255C35.9667 2.07607 34.9934 1.10254 33.7969 1.10254H11.8933L1.10254 11.8935V34.8126Z" fill="black"/>
<path d="M8.94394 12.2164H0.771727C0.467206 12.2164 0.220459 11.9696 0.220459 11.6651C0.220459 11.3606 0.467206 11.1139 0.771727 11.1139H8.94416C10.1406 11.1139 11.114 10.1403 11.114 8.94384V0.771849C11.114 0.467329 11.3607 0.220581 11.6652 0.220581C11.9697 0.220581 12.2165 0.467329 12.2165 0.771849V8.94407C12.2163 10.7485 10.7484 12.2164 8.94394 12.2164Z" fill="black"/>
<path d="M12.7708 41.5058C11.9938 41.2559 11.2379 41.0471 11.2379 40.2381C11.2379 39.5911 11.6879 39.272 12.3223 39.272C13.0513 39.272 13.4793 39.7199 13.5766 40.229C13.5865 40.2811 13.6319 40.3186 13.6848 40.3186H14.6526C14.7186 40.3186 14.7706 40.2603 14.762 40.1944C14.6288 39.1583 13.798 38.3307 12.3223 38.3307C10.9878 38.3307 10.0496 39.0553 10.0496 40.2676C10.0496 41.6213 10.9653 41.988 12.1508 42.3774C12.975 42.6374 13.7327 42.8861 13.7327 43.7139C13.7327 44.2842 13.3783 44.7294 12.6185 44.7294C11.79 44.7294 11.3146 44.1818 11.2566 43.6041C11.2511 43.5477 11.2037 43.5049 11.147 43.5049H10.1891C10.1245 43.5049 10.0734 43.5602 10.0793 43.6248C10.1918 44.9018 11.3082 45.6707 12.6478 45.6707C14.0884 45.6707 14.9109 44.7737 14.9109 43.6844C14.9111 42.2879 13.9827 41.8983 12.7708 41.5058Z" fill="black"/>
<path d="M21.1133 45.1364C23.8881 43.3894 22.9856 38.3309 19.1948 38.3309C16.1179 38.3309 14.8947 41.661 16.1159 43.9001C16.9329 45.3984 18.6222 45.96 20.1688 45.5554L21.5258 46.9219C21.5465 46.9426 21.5748 46.9543 21.6039 46.9543H22.7395C22.8387 46.9543 22.8872 46.8328 22.8158 46.7645L21.1133 45.1364ZM19.1948 39.3907C22.3803 39.3907 22.394 44.6209 19.1948 44.6209C18.2987 44.6209 17.5346 44.2101 17.1155 43.3971C16.3254 41.8668 16.9631 39.3907 19.1948 39.3907Z" fill="black"/>
<path d="M27.183 44.6802H24.8246V38.5301C24.8246 38.4692 24.7752 38.4198 24.7144 38.4198H23.8158C23.755 38.4198 23.7056 38.4692 23.7056 38.5301V45.4915C23.7056 45.5523 23.755 45.6017 23.8158 45.6017H27.1832C27.244 45.6017 27.2934 45.5523 27.2934 45.4915V44.7905C27.2932 44.7296 27.244 44.6802 27.183 44.6802Z" fill="black"/>
<path d="M18.539 19.1943C15.0887 19.1943 9.24927 18.6496 9.24927 16.608C9.24927 14.5663 15.0887 14.0219 18.539 14.0219C21.9893 14.0219 27.8288 14.5665 27.8288 16.6082C27.8288 18.6499 21.9893 19.1943 18.539 19.1943ZM10.3556 16.6082C10.5765 17.1345 13.5315 18.0918 18.539 18.0918C23.5465 18.0918 26.5015 17.1343 26.7225 16.608C26.5015 16.0816 23.5465 15.1242 18.539 15.1242C13.5315 15.1242 10.5765 16.0818 10.3556 16.6082ZM26.728 16.6227H26.7304H26.728Z" fill="black"/>
<path d="M18.539 30.6859C15.0887 30.6859 9.24927 30.1413 9.24927 28.0996V16.8286C9.24927 16.5241 9.49602 16.2773 9.80054 16.2773C10.1051 16.2773 10.3518 16.5241 10.3518 16.8286V28.0996C10.5214 28.6079 13.4845 29.5834 18.539 29.5834C23.5935 29.5834 26.5567 28.6079 26.728 28.0851L26.7262 16.8286C26.7262 16.5241 26.973 16.2773 27.2775 16.2773C27.582 16.2773 27.8288 16.5241 27.8288 16.8286V28.0996C27.8288 30.1411 21.9893 30.6859 18.539 30.6859Z" fill="black"/>
<path d="M18.539 23.0249C15.0887 23.0249 9.24927 22.4802 9.24927 20.4386C9.24927 20.134 9.49602 19.8873 9.80054 19.8873C10.1051 19.8873 10.3518 20.134 10.3518 20.4386C10.5214 20.9468 13.4845 21.9223 18.539 21.9223C23.5935 21.9223 26.5567 20.9468 26.728 20.424C26.728 20.1195 26.9739 19.88 27.2784 19.88C27.5829 19.88 27.8288 20.134 27.8288 20.4386C27.8288 22.4802 21.9893 23.0249 18.539 23.0249Z" fill="black"/>
<path d="M18.539 26.8553C15.0887 26.8553 9.24927 26.3107 9.24927 24.269C9.24927 23.9645 9.49602 23.7177 9.80054 23.7177C10.1051 23.7177 10.3518 23.9645 10.3518 24.269C10.5212 24.7773 13.4843 25.7528 18.539 25.7528C23.5937 25.7528 26.5569 24.7775 26.728 24.2544C26.728 23.9501 26.9739 23.7104 27.2784 23.7104C27.5829 23.7104 27.8288 23.9645 27.8288 24.269C27.8288 26.3107 21.9893 26.8553 18.539 26.8553Z" fill="black"/>
</svg>
