<svg width="50" height="50" viewBox="0 0 50 50" fill="none" xmlns="http://www.w3.org/2000/svg">
<path d="M25 50C38.8071 50 50 38.8071 50 25C50 11.1929 38.8071 0 25 0C11.1929 0 0 11.1929 0 25C0 38.8071 11.1929 50 25 50Z" fill="#6E64C3"/>
<path d="M39.5712 12.6373L32.6722 9.84949L20.5199 21.625L13.1778 16.0552L10.3928 17.4476L10.4286 32.1619L28.078 49.8113C40.4328 48.2942 50 37.7649 50 25.0001C50 24.3217 49.9719 23.6498 49.9189 22.9849L39.5712 12.6373Z" fill="#5046AF"/>
<path d="M39.5712 12.6373L32.6722 9.84949L20.5199 21.625L13.1778 16.0552L10.3928 17.4476L10.4286 32.1619L13.2135 33.5544L20.5556 27.9845L32.708 39.76L39.607 36.9722L39.5712 12.6373ZM13.9098 27.9213V21.6884L17.3552 24.8048H17.391L13.9098 27.9213ZM31.9801 29.9941L25.0536 24.8048H25.0178L31.9801 19.6154V29.9941Z" fill="white"/>
</svg>
