<svg width="50" height="50" viewBox="0 0 50 50" fill="none" xmlns="http://www.w3.org/2000/svg">
<path d="M24.9997 49.9993C38.8066 49.9993 49.9993 38.8066 49.9993 24.9997C49.9993 11.1927 38.8066 0 24.9997 0C11.1927 0 0 11.1927 0 24.9997C0 38.8066 11.1927 49.9993 24.9997 49.9993Z" fill="#592B49"/>
<path d="M49.9456 23.3697L41.356 14.78H37.5014V22.0232C36.3124 20.6698 34.9038 19.993 33.2761 19.993C32.8495 19.993 32.441 20.0312 32.0499 20.1054L26.7245 14.78H22.0191L18.9896 19.7345L14.0351 14.78H9.28877L15.5167 24.3965L8.64404 34.8908L23.7211 49.9677C24.1448 49.9891 24.5712 50.0001 25.0001 50.0001C38.8072 50.0001 49.9999 38.8071 49.9999 25.0001C49.9999 24.4521 49.9803 23.9088 49.9456 23.3697Z" fill="#291221"/>
<path d="M8.64404 34.8908L15.5168 24.3965L9.28887 14.78H14.0352L18.0684 21.2412L22.0192 14.78H26.7246L20.469 24.5473L27.3418 34.8907H22.4444L17.986 27.9356L13.5139 34.8907L8.64404 34.8908Z" fill="#DA2286"/>
<path d="M41.3559 34.8908H37.7755V32.7508C37.1809 33.583 36.4792 34.2026 35.6698 34.6095C34.8604 35.0163 34.0442 35.22 33.2212 35.22C31.5476 35.22 30.1141 34.5457 28.9205 33.1966C27.727 31.8477 27.1304 29.966 27.1304 27.5517C27.1304 25.0823 27.7111 23.2054 28.8725 21.9204C30.0339 20.6357 31.5016 19.993 33.2761 19.993C34.9037 19.993 36.3122 20.67 37.5013 22.0232V14.78H41.356V34.8908H41.3559ZM31.0674 27.2909C31.0674 28.8458 31.2822 29.9707 31.7122 30.6655C32.334 31.6718 33.2027 32.1746 34.3185 32.1746C35.2055 32.1746 35.96 31.7974 36.582 31.0429C37.2038 30.2884 37.5149 29.1613 37.5149 27.6613C37.5149 25.9877 37.2131 24.7829 36.6095 24.0466C36.0059 23.3106 35.2331 22.9423 34.2912 22.9423C33.3765 22.9423 32.6108 23.3059 31.9934 24.0329C31.3761 24.76 31.0674 25.8461 31.0674 27.2909Z" fill="#DA2286"/>
</svg>
