<svg width="215" height="161" viewBox="0 0 215 161" fill="none" xmlns="http://www.w3.org/2000/svg">
<g clip-path="url(#clip0_301_111)">
<path d="M198.59 2H16.28C8.39337 2 2 8.39337 2 16.28V144.3C2 152.187 8.39337 158.58 16.28 158.58H198.59C206.477 158.58 212.87 152.187 212.87 144.3V16.28C212.87 8.39337 206.477 2 198.59 2Z" fill="white"/>
<path d="M198.59 2H16.28C8.39337 2 2 8.39337 2 16.28V144.3C2 152.187 8.39337 158.58 16.28 158.58H198.59C206.477 158.58 212.87 152.187 212.87 144.3V16.28C212.87 8.39337 206.477 2 198.59 2Z" stroke="#1D1D1B" stroke-width="4" stroke-miterlimit="10"/>
<path d="M198.59 2H16.28C8.39337 2 2 8.39337 2 16.28V144.3C2 152.187 8.39337 158.58 16.28 158.58H198.59C206.477 158.58 212.87 152.187 212.87 144.3V16.28C212.87 8.39337 206.477 2 198.59 2Z" stroke="#1D1D1B" stroke-width="3" stroke-linejoin="round"/>
<path d="M51.6597 35.1499L50.0997 36.6899L35.0997 51.6099C35.0091 51.7076 34.8983 51.7844 34.775 51.8351C34.6518 51.8858 34.519 51.9091 34.3858 51.9034C34.2527 51.8977 34.1224 51.8631 34.0039 51.8021C33.8854 51.741 33.7817 51.655 33.6997 51.5499L30.7897 48.6799C30.6993 48.5923 30.6274 48.4874 30.5783 48.3714C30.5292 48.2554 30.5039 48.1308 30.5039 48.0049C30.5039 47.879 30.5292 47.7543 30.5783 47.6384C30.6274 47.5224 30.6993 47.4175 30.7897 47.3299L42.9897 35.1399L51.6597 35.1499Z" fill="#03707D"/>
<path d="M51.6596 35.1501L58.3296 41.8201C58.4986 42.0254 58.586 42.2859 58.5749 42.5516C58.5638 42.8173 58.4551 43.0696 58.2696 43.2601L55.3696 46.1601C55.1876 46.3252 54.9476 46.4115 54.7022 46.4003C54.4567 46.389 54.2257 46.2811 54.0596 46.1001L43.0596 35.1001L51.6596 35.1501Z" fill="#05979A"/>
<path d="M29.4297 38.23L30.9997 36.73L45.6097 22.07C45.702 21.9753 45.8133 21.9012 45.9362 21.8524C46.0591 21.8036 46.191 21.7813 46.3231 21.787C46.4552 21.7927 46.5847 21.8261 46.703 21.8853C46.8213 21.9444 46.9258 22.0278 47.0097 22.13L49.9197 25C50.0114 25.0869 50.0844 25.1916 50.1343 25.3077C50.1842 25.4237 50.2099 25.5487 50.2099 25.675C50.2099 25.8014 50.1842 25.9264 50.1343 26.0424C50.0844 26.1585 50.0114 26.2632 49.9197 26.35L37.9997 38.25L29.4297 38.23Z" fill="#118D38"/>
<path d="M29.4202 38.2501L22.7502 31.5801C22.5811 31.3748 22.4938 31.1143 22.5048 30.8486C22.5159 30.5829 22.6246 30.3306 22.8102 30.1401L25.7102 27.2401C25.8904 27.0768 26.1274 26.9906 26.3704 27C26.6134 27.0093 26.843 27.1135 27.0102 27.2901L38.0102 38.2901L29.4202 38.2501Z" fill="#5EB130"/>
<path d="M1.59961 65.4199H213.53V102.82H1.59961V65.4199Z" fill="#1D1D1B"/>
<path d="M72.953 90.01H69.9442L74.5287 76.73H78.147L82.7249 90.01H79.7162L76.3897 79.7647H76.2859L72.953 90.01ZM72.7649 84.7901H79.8718V86.9818H72.7649V84.7901ZM85.0642 76.73L88.2739 86.8197H88.3971L91.6134 76.73H94.7259L90.1479 90.01H86.5296L81.9452 76.73H85.0642ZM96.8479 90.01H93.8391L98.4236 76.73H102.042L106.62 90.01H103.611L100.285 79.7647H100.181L96.8479 90.01ZM96.6598 84.7901H103.767V86.9818H96.6598V84.7901ZM119.326 76.73V90.01H116.901L111.123 81.6516H111.026V90.01H108.218V76.73H110.682L116.414 85.0819H116.531V76.73H119.326ZM133.363 81.3793H130.523C130.471 81.0119 130.365 80.6855 130.205 80.4002C130.045 80.1105 129.84 79.8641 129.589 79.6609C129.338 79.4578 129.049 79.3021 128.72 79.1941C128.396 79.086 128.044 79.032 127.663 79.032C126.976 79.032 126.377 79.2027 125.867 79.5442C125.357 79.8814 124.961 80.3742 124.68 81.0227C124.399 81.6668 124.259 82.4492 124.259 83.37C124.259 84.3167 124.399 85.1121 124.68 85.7563C124.966 86.4004 125.363 86.8867 125.874 87.2152C126.384 87.5438 126.974 87.7081 127.644 87.7081C128.02 87.7081 128.368 87.6583 128.688 87.5589C129.012 87.4595 129.299 87.3147 129.55 87.1245C129.801 86.9299 130.008 86.6943 130.173 86.4177C130.341 86.141 130.458 85.8254 130.523 85.4709L133.363 85.4839C133.29 86.0934 133.106 86.6814 132.812 87.2477C132.522 87.8096 132.131 88.3133 131.638 88.7585C131.15 89.1995 130.566 89.5496 129.887 89.809C129.213 90.064 128.45 90.1916 127.598 90.1916C126.414 90.1916 125.355 89.9236 124.421 89.3875C123.492 88.8515 122.757 88.0755 122.216 87.0596C121.68 86.0437 121.412 84.8139 121.412 83.37C121.412 81.9218 121.685 80.6898 122.229 79.6739C122.774 78.658 123.513 77.8842 124.447 77.3525C125.381 76.8165 126.431 76.5484 127.598 76.5484C128.368 76.5484 129.081 76.6565 129.738 76.8727C130.4 77.0888 130.985 77.4044 131.496 77.8194C132.006 78.2301 132.421 78.7337 132.741 79.3302C133.065 79.9268 133.272 80.6098 133.363 81.3793ZM135.376 90.01V76.73H144.325V79.0449H138.184V82.2093H143.864V84.5242H138.184V87.6951H144.351V90.01H135.376ZM138.878 75.4461L140.253 72.4957H142.808L140.83 75.4461H138.878Z" fill="white"/>
<path d="M85.2302 113.31L90.2502 123.48L101.48 125.12L93.3602 133.03L95.2702 144.22L85.2302 138.94L75.1902 144.22L77.1102 133.03L68.9902 125.12L80.2102 123.48L85.2302 113.31Z" fill="#1D1D1B"/>
<path d="M125.86 113.18L130.88 123.35L142.11 124.98L133.99 132.9L135.91 144.08L125.86 138.8L115.82 144.08L117.74 132.9L109.62 124.98L120.84 123.35L125.86 113.18Z" fill="#1D1D1B"/>
<path d="M61.2098 35.2099C61.1841 33.2577 61.7391 31.3419 62.8043 29.7058C63.8695 28.0696 65.3969 26.7869 67.1926 26.0205C68.9883 25.2542 70.9712 25.0387 72.8895 25.4016C74.8079 25.7644 76.5751 26.6891 77.9669 28.0584C79.3587 29.4276 80.3121 31.1795 80.7062 33.0917C81.1003 35.0039 80.9173 36.99 80.1803 38.798C79.4434 40.6059 78.1858 42.1541 76.5673 43.2459C74.9487 44.3376 73.0422 44.9238 71.0898 44.9299C68.4993 44.9226 66.0147 43.9011 64.168 42.0844C62.3214 40.2676 61.2595 37.8 61.2098 35.2099ZM65.2098 35.2099C65.2098 38.6899 67.6698 41.5399 71.0798 41.5399C72.6945 41.4723 74.2168 40.7687 75.3146 39.5829C76.4125 38.397 76.9967 36.825 76.9398 35.2099C76.9398 31.8899 74.1498 28.9499 71.0798 28.9499C69.4828 29.0396 67.9813 29.7392 66.8852 30.9041C65.7891 32.0691 65.1822 33.6104 65.1898 35.2099H65.2098Z" fill="#1D1D1B"/>
<path d="M157.76 42.88C156.391 44.1306 154.614 44.8413 152.76 44.88C149.06 44.88 145.88 42.33 145.88 38.71C145.88 35.09 149.11 32.79 152.88 32.79C154.671 32.7595 156.409 33.4018 157.75 34.59V33.05C157.722 32.4854 157.582 31.932 157.338 31.4219C157.095 30.9118 156.753 30.4552 156.331 30.0784C155.91 29.7017 155.418 29.4124 154.884 29.2272C154.35 29.0421 153.784 28.9648 153.22 29C151.379 28.9968 149.572 29.502 148 30.46V27.08C149.777 26.0941 151.778 25.5811 153.81 25.59C158.19 25.59 161.65 28.65 161.65 32.71V44.45H157.78L157.76 42.88ZM153.43 35.88C151.15 35.88 149.43 37.24 149.43 38.88C149.43 40.52 151.29 41.88 153.58 41.88C155.87 41.88 157.77 40.36 157.77 38.73C157.77 37.1 155.75 35.92 153.43 35.92V35.88Z" fill="#1D1D1B"/>
<path d="M170.37 41.37C171.68 41.37 173.23 41.07 173.23 39.37C173.23 38.29 172.59 37.92 171.57 37.48L168.14 36.05C166.14 35.11 164.58 33.9 164.58 31.26C164.58 28.26 167.58 25.58 171.15 25.58C173.033 25.5094 174.886 26.065 176.42 27.16V31.16C174.986 29.8575 173.144 29.0939 171.21 29C169.43 29 168.65 29.94 168.65 30.92C168.65 31.9 169.2 32.34 170.72 33.06L174 34.52C176.17 35.52 177.46 36.8 177.46 39.15C177.46 42.45 173.91 44.92 170.39 44.92C168.259 44.9432 166.17 44.3304 164.39 43.16V39.07C166.036 40.5402 168.163 41.3582 170.37 41.37Z" fill="#1D1D1B"/>
<path d="M187.63 41.65C188.655 41.6402 189.647 41.2883 190.449 40.65V44.2C189.307 44.7893 188.035 45.0816 186.749 45.05C183.189 45.05 180.539 42.43 180.539 38.55V29.39L177.479 29.33V26.15H180.6V21.5L184.499 20.26V26.12H189.779V29.35H184.559V38.12C184.539 40.33 185.67 41.65 187.63 41.65Z" fill="#1D1D1B"/>
<path d="M103.119 35.26C103.119 40.58 99.2594 44.95 94.1194 44.95C92.8411 44.9908 91.5723 44.7166 90.4248 44.1516C89.2774 43.5866 88.2865 42.7481 87.5394 41.71V52.05H83.6494V26H87.6494V28.87C88.3279 27.8129 89.2707 26.9515 90.3844 26.3709C91.4982 25.7903 92.7444 25.5108 93.9994 25.56C99.1994 25.56 103.119 29.89 103.119 35.26ZM87.4494 35.26C87.3914 36.8414 87.9523 38.3832 89.0129 39.5577C90.0735 40.7322 91.5502 41.4469 93.1294 41.55C94.7516 41.496 96.2903 40.818 97.4249 39.6573C98.5594 38.4967 99.2023 36.9429 99.2194 35.32C99.2738 33.7089 98.6914 32.1413 97.5983 30.9566C96.5053 29.7719 94.9896 29.0653 93.3794 28.99C92.5806 29.0055 91.7927 29.1791 91.0613 29.5008C90.3299 29.8225 89.6695 30.2858 89.1181 30.8641C88.5668 31.4424 88.1355 32.1242 87.8491 32.8701C87.5626 33.616 87.4268 34.4113 87.4494 35.21V35.26Z" fill="#1D1D1B"/>
<path d="M113.419 25.6C114.669 25.5531 115.909 25.8328 117.017 26.4115C118.126 26.9902 119.064 27.848 119.739 28.9V26.03H123.739V52.03H119.869V41.75C119.13 42.7801 118.151 43.6143 117.017 44.1806C115.882 44.7469 114.627 45.0282 113.359 45C108.169 45 104.359 40.64 104.359 35.31C104.359 29.98 108.239 25.6 113.419 25.6ZM114.049 28.97C112.439 29.0454 110.923 29.7519 109.83 30.9367C108.737 32.1214 108.155 33.689 108.209 35.3C108.227 36.9247 108.871 38.4799 110.008 39.6408C111.144 40.8017 112.685 41.4786 114.309 41.53C115.892 41.4345 117.374 40.7223 118.438 39.5464C119.502 38.3705 120.062 36.8245 119.999 35.24C120.025 34.438 119.89 33.639 119.604 32.8895C119.317 32.14 118.885 31.4549 118.331 30.8742C117.777 30.2935 117.113 29.8287 116.378 29.507C115.643 29.1852 114.852 29.0129 114.049 29V28.97Z" fill="#1D1D1B"/>
<path d="M139.63 26.0601H143.63V44.5601H139.68V42.0901C139.092 42.972 138.292 43.6928 137.355 44.187C136.417 44.6813 135.37 44.9333 134.31 44.9201C129.94 44.9201 127.62 41.6601 127.62 37.7201V26.0701H131.51V36.8901C131.51 39.6401 133.13 41.4601 135.46 41.4601C136.052 41.4321 136.633 41.2864 137.168 41.0314C137.703 40.7764 138.182 40.4173 138.577 39.975C138.972 39.5328 139.275 39.0162 139.467 38.4556C139.66 37.895 139.739 37.3016 139.7 36.7101L139.63 26.0601Z" fill="#1D1D1B"/>
<path d="M167.83 113.18L172.85 123.35L184.08 124.98L175.96 132.9L177.88 144.08L167.83 138.8L157.79 144.08L159.71 132.9L151.59 124.98L162.81 123.35L167.83 113.18Z" fill="#1D1D1B"/>
<path d="M45.7898 113.31L50.8098 123.48L62.0398 125.12L53.9098 133.03L55.8298 144.22L45.7898 138.94L35.7498 144.22L37.6698 133.03L29.5498 125.12L40.7698 123.48L45.7898 113.31Z" fill="#1D1D1B"/>
</g>
<defs>
<clipPath id="clip0_301_111">
<rect width="214.87" height="160.58" fill="white"/>
</clipPath>
</defs>
</svg>
